<svg width="50" height="52" viewBox="0 0 50 52" fill="none" xmlns="http://www.w3.org/2000/svg">
<path d="M9.06372 0C4.04282 0 0 4.23513 0 9.49487V42.5051C0 47.7648 4.04282 51.9999 9.06372 51.9999H26.1425V31.6712H21.0111V24.3522H26.1425V18.0992C26.1425 13.1865 29.1744 8.67587 36.1587 8.67587C38.9865 8.67587 41.0776 8.96026 41.0776 8.96026L40.9131 15.795C40.9131 15.795 38.7805 15.7739 36.4534 15.7739C33.9348 15.7739 33.5309 16.9896 33.5309 19.0077V24.3523H41.1132L40.7828 31.6713H33.5309V52H40.5749C45.5958 52 49.6386 47.7649 49.6386 42.5051V9.49492C49.6386 4.23518 45.5958 5.19999e-05 40.5749 5.19999e-05H9.06367L9.06372 0Z" fill="white"/>
</svg>
