<svg width="56" height="56" viewBox="0 0 56 56" fill="none" xmlns="http://www.w3.org/2000/svg">
<path d="M27.9999 0C20.3892 0 19.4407 0.03675 16.4622 0.16275C13.4714 0.30975 11.4484 0.7735 9.66342 1.4665C7.79523 2.17179 6.10333 3.27603 4.70567 4.70225C3.27547 6.09665 2.17061 7.78948 1.46992 9.66C0.776918 11.445 0.313168 13.468 0.166168 16.4587C0.031418 19.439 0.00341797 20.3858 0.00341797 27.9965C0.00341797 35.6073 0.040168 36.5557 0.166168 39.5342C0.313168 42.5162 0.776918 44.548 1.46992 46.333C2.1752 48.2012 3.27945 49.8931 4.70567 51.2908C6.10006 52.721 7.7929 53.8258 9.66342 54.5265C11.4484 55.2108 13.4802 55.6832 16.4622 55.8302C19.4424 55.965 20.3892 55.993 27.9999 55.993C35.6107 55.993 36.5592 55.9562 39.5377 55.8302C42.5197 55.6832 44.5514 55.209 46.3364 54.5265C48.2046 53.8212 49.8965 52.717 51.2942 51.2908C52.7262 49.8979 53.8314 48.2046 54.5299 46.333C55.2142 44.548 55.6867 42.5162 55.8337 39.5342C55.9684 36.554 55.9964 35.6073 55.9964 27.9965C55.9964 20.3858 55.9597 19.4372 55.8337 16.4587C55.6867 13.4767 55.2124 11.4345 54.5299 9.66C53.8246 7.79181 52.7204 6.09991 51.2942 4.70225C49.9013 3.27021 48.208 2.16506 46.3364 1.4665C44.5514 0.7735 42.5197 0.30975 39.5377 0.16275C36.5574 0.028 35.6107 0 27.9999 0ZM27.9999 5.04C35.4742 5.04 36.3667 5.07675 39.3207 5.20275C42.0454 5.3305 43.5294 5.7855 44.5147 6.1705C45.7327 6.62012 46.8351 7.33574 47.7417 8.26525C48.6696 9.16795 49.3825 10.2679 49.8277 11.4835C50.2127 12.4687 50.6677 13.9527 50.7954 16.6775C50.9214 19.6315 50.9582 20.5257 50.9582 27.9982C50.9582 35.4707 50.9214 36.365 50.7849 39.319C50.6379 42.0438 50.1829 43.5278 49.7997 44.513C49.2694 45.8273 48.6779 46.746 47.7014 47.74C46.7918 48.6637 45.6901 49.3759 44.4744 49.826C43.5014 50.211 41.9964 50.666 39.2612 50.7937C36.2914 50.9197 35.4164 50.9565 27.9229 50.9565C20.4294 50.9565 19.5562 50.9197 16.5829 50.7832C13.8582 50.6362 12.3549 50.1812 11.3697 49.798C10.0397 49.2677 9.12792 48.6762 8.15142 47.6997C7.16617 46.7145 6.53967 45.7765 6.05667 44.4728C5.66467 43.4998 5.21667 41.9947 5.07142 39.2595C4.97167 36.3247 4.92442 35.4148 4.92442 27.9563C4.92442 20.5013 4.97167 19.5895 5.07142 16.618C5.21667 13.8828 5.66467 12.3813 6.05667 11.4048C6.53967 10.073 7.16792 9.163 8.15142 8.17775C9.12617 7.203 10.0397 6.573 11.3697 6.0795C12.3549 5.69625 13.8214 5.24125 16.5567 5.10475C19.5264 4.998 20.4014 4.9595 27.8844 4.9595L27.9999 5.04ZM27.9999 13.6273C26.1123 13.6266 24.243 13.9979 22.4989 14.7199C20.7548 15.442 19.1701 16.5006 17.8353 17.8354C16.5005 19.1702 15.4419 20.7549 14.7198 22.499C13.9978 24.2431 13.6265 26.1123 13.6272 28C13.6265 29.8877 13.9978 31.7569 14.7198 33.501C15.4419 35.2451 16.5005 36.8298 17.8353 38.1646C19.1701 39.4994 20.7548 40.558 22.4989 41.2801C24.243 42.0021 26.1123 42.3734 27.9999 42.3727C29.8876 42.3734 31.7569 42.0021 33.5009 41.2801C35.245 40.558 36.8298 39.4994 38.1645 38.1646C39.4993 36.8298 40.558 35.2451 41.28 33.501C42.0021 31.7569 42.3734 29.8877 42.3727 28C42.3734 26.1123 42.0021 24.2431 41.28 22.499C40.558 20.7549 39.4993 19.1702 38.1645 17.8354C36.8298 16.5006 35.245 15.442 33.5009 14.7199C31.7569 13.9979 29.8876 13.6266 27.9999 13.6273V13.6273ZM27.9999 37.3328C22.8409 37.3328 18.6672 33.159 18.6672 28C18.6672 22.841 22.8409 18.6672 27.9999 18.6672C33.1589 18.6672 37.3327 22.841 37.3327 28C37.3327 33.159 33.1589 37.3328 27.9999 37.3328ZM46.3119 13.0533C46.311 13.9452 45.956 14.8002 45.325 15.4306C44.694 16.0609 43.8386 16.415 42.9467 16.415C42.5057 16.415 42.069 16.3281 41.6615 16.1594C41.2541 15.9906 40.8839 15.7432 40.572 15.4314C40.2602 15.1195 40.0128 14.7493 39.844 14.3419C39.6753 13.9345 39.5884 13.4978 39.5884 13.0567C39.5884 12.6157 39.6753 12.179 39.844 11.7716C40.0128 11.3642 40.2602 10.994 40.572 10.6821C40.8839 10.3703 41.2541 10.1229 41.6615 9.95413C42.069 9.78536 42.5057 9.6985 42.9467 9.6985C44.7964 9.6985 46.3119 11.2035 46.3119 13.0533V13.0533Z" fill="white"/>
</svg>
