<svg width="28" height="28" viewBox="0 0 28 28" fill="none" xmlns="http://www.w3.org/2000/svg">
<path d="M26.2281 21.8595L21.7938 17.4252L18.3831 16.0161C19.5188 14.401 20.1272 12.4743 20.125 10.5C20.125 5.19274 15.8073 0.875 10.5 0.875C5.19274 0.875 0.875 5.19274 0.875 10.5C0.875 15.8073 5.19274 20.125 10.5 20.125C12.4915 20.1273 14.4342 19.5083 16.0573 18.3544L17.4628 21.7559L21.8969 26.1904C22.1813 26.4748 22.5189 26.7004 22.8904 26.8544C23.262 27.0083 23.6602 27.0875 24.0624 27.0875C24.4646 27.0875 24.8628 27.0083 25.2344 26.8544C25.606 26.7005 25.9436 26.475 26.228 26.1906C26.5124 25.9062 26.738 25.5686 26.8919 25.197C27.0458 24.8255 27.125 24.4272 27.1251 24.0251C27.1251 23.6229 27.0459 23.2246 26.892 22.8531C26.7381 22.4815 26.5125 22.1439 26.2281 21.8595ZM2.625 10.5C2.625 6.15781 6.15781 2.625 10.5 2.625C14.8422 2.625 18.375 6.15781 18.375 10.5C18.375 14.8422 14.8422 18.375 10.5 18.375C6.15781 18.375 2.625 14.8422 2.625 10.5ZM24.9906 24.953C24.7443 25.1988 24.4105 25.3368 24.0625 25.3368C23.7145 25.3368 23.3807 25.1988 23.1344 24.953L18.9469 20.7655L17.6402 17.6026L20.8031 18.9094L24.9907 23.0969C25.2365 23.3432 25.3745 23.677 25.3744 24.025C25.3744 24.373 25.2364 24.7067 24.9906 24.953Z" fill="black"/>
</svg>
