<svg width="1194" height="147" viewBox="0 0 1194 147" fill="none" xmlns="http://www.w3.org/2000/svg">
<rect x="0.5" y="93.5" width="1193" height="53" rx="19.5" stroke="#FF5A00"/>
<path d="M18.2119 8.98633H11.3564V28H8.55859V8.98633H1.71777V6.67188H18.2119V8.98633ZM18.7686 19.9287C18.7686 18.376 19.0713 16.9795 19.6768 15.7393C20.292 14.499 21.1416 13.542 22.2256 12.8682C23.3193 12.1943 24.5645 11.8574 25.9609 11.8574C28.1191 11.8574 29.8623 12.6045 31.1904 14.0986C32.5283 15.5928 33.1973 17.5801 33.1973 20.0605V20.251C33.1973 21.7939 32.8994 23.1807 32.3037 24.4111C31.7178 25.6318 30.873 26.584 29.7695 27.2676C28.6758 27.9512 27.416 28.293 25.9902 28.293C23.8418 28.293 22.0986 27.5459 20.7607 26.0518C19.4326 24.5576 18.7686 22.5801 18.7686 20.1191V19.9287ZM21.4932 20.251C21.4932 22.0088 21.8984 23.4199 22.709 24.4844C23.5293 25.5488 24.623 26.0811 25.9902 26.0811C27.3672 26.0811 28.4609 25.5439 29.2715 24.4697C30.082 23.3857 30.4873 21.8721 30.4873 19.9287C30.4873 18.1904 30.0723 16.7842 29.2422 15.71C28.4219 14.626 27.3281 14.084 25.9609 14.084C24.623 14.084 23.5439 14.6162 22.7236 15.6807C21.9033 16.7451 21.4932 18.2686 21.4932 20.251ZM40.2725 8.3125V12.1504H43.2314V14.2451H40.2725V24.0742C40.2725 24.709 40.4043 25.1875 40.668 25.5098C40.9316 25.8223 41.3809 25.9785 42.0156 25.9785C42.3281 25.9785 42.7578 25.9199 43.3047 25.8027V28C42.5918 28.1953 41.8984 28.293 41.2246 28.293C40.0137 28.293 39.1006 27.9268 38.4854 27.1943C37.8701 26.4619 37.5625 25.4219 37.5625 24.0742V14.2451H34.6768V12.1504H37.5625V8.3125H40.2725ZM56.1953 28C56.0391 27.6875 55.9121 27.1309 55.8145 26.3301C54.5547 27.6387 53.0508 28.293 51.3027 28.293C49.7402 28.293 48.4561 27.8535 47.4502 26.9746C46.4541 26.0859 45.9561 24.9629 45.9561 23.6055C45.9561 21.9551 46.5811 20.6758 47.8311 19.7676C49.0908 18.8496 50.8584 18.3906 53.1338 18.3906H55.7705V17.1455C55.7705 16.1982 55.4873 15.4463 54.9209 14.8896C54.3545 14.3232 53.5195 14.04 52.416 14.04C51.4492 14.04 50.6387 14.2842 49.9844 14.7725C49.3301 15.2607 49.0029 15.8516 49.0029 16.5449H46.2783C46.2783 15.7539 46.5566 14.9922 47.1133 14.2598C47.6797 13.5176 48.4414 12.9316 49.3984 12.502C50.3652 12.0723 51.4248 11.8574 52.5771 11.8574C54.4033 11.8574 55.834 12.3164 56.8691 13.2344C57.9043 14.1426 58.4414 15.3975 58.4805 16.999V24.2939C58.4805 25.749 58.666 26.9062 59.0371 27.7656V28H56.1953ZM51.6982 25.9346C52.5479 25.9346 53.3535 25.7148 54.1152 25.2754C54.877 24.8359 55.4287 24.2646 55.7705 23.5615V20.3096H53.6465C50.3262 20.3096 48.666 21.2812 48.666 23.2246C48.666 24.0742 48.9492 24.7383 49.5156 25.2168C50.082 25.6953 50.8096 25.9346 51.6982 25.9346ZM65.6729 28H62.9629V5.5H65.6729V28ZM87.25 28C87.0938 27.6875 86.9668 27.1309 86.8691 26.3301C85.6094 27.6387 84.1055 28.293 82.3574 28.293C80.7949 28.293 79.5107 27.8535 78.5049 26.9746C77.5088 26.0859 77.0107 24.9629 77.0107 23.6055C77.0107 21.9551 77.6357 20.6758 78.8857 19.7676C80.1455 18.8496 81.9131 18.3906 84.1885 18.3906H86.8252V17.1455C86.8252 16.1982 86.542 15.4463 85.9756 14.8896C85.4092 14.3232 84.5742 14.04 83.4707 14.04C82.5039 14.04 81.6934 14.2842 81.0391 14.7725C80.3848 15.2607 80.0576 15.8516 80.0576 16.5449H77.333C77.333 15.7539 77.6113 14.9922 78.168 14.2598C78.7344 13.5176 79.4961 12.9316 80.4531 12.502C81.4199 12.0723 82.4795 11.8574 83.6318 11.8574C85.458 11.8574 86.8887 12.3164 87.9238 13.2344C88.959 14.1426 89.4961 15.3975 89.5352 16.999V24.2939C89.5352 25.749 89.7207 26.9062 90.0918 27.7656V28H87.25ZM82.7529 25.9346C83.6025 25.9346 84.4082 25.7148 85.1699 25.2754C85.9316 24.8359 86.4834 24.2646 86.8252 23.5615V20.3096H84.7012C81.3809 20.3096 79.7207 21.2812 79.7207 23.2246C79.7207 24.0742 80.0039 24.7383 80.5703 25.2168C81.1367 25.6953 81.8643 25.9346 82.7529 25.9346ZM100.141 26.0811C101.107 26.0811 101.952 25.7881 102.675 25.2021C103.397 24.6162 103.798 23.8838 103.876 23.0049H106.439C106.391 23.9131 106.078 24.7773 105.502 25.5977C104.926 26.418 104.154 27.0723 103.188 27.5605C102.23 28.0488 101.215 28.293 100.141 28.293C97.9824 28.293 96.2637 27.5752 94.9844 26.1396C93.7148 24.6943 93.0801 22.7217 93.0801 20.2217V19.7676C93.0801 18.2246 93.3633 16.8525 93.9297 15.6514C94.4961 14.4502 95.3066 13.5176 96.3613 12.8535C97.4258 12.1895 98.6807 11.8574 100.126 11.8574C101.903 11.8574 103.378 12.3896 104.55 13.4541C105.731 14.5186 106.361 15.9004 106.439 17.5996H103.876C103.798 16.5742 103.407 15.7344 102.704 15.0801C102.011 14.416 101.151 14.084 100.126 14.084C98.749 14.084 97.6797 14.582 96.918 15.5781C96.166 16.5645 95.79 17.9951 95.79 19.8701V20.3828C95.79 22.209 96.166 23.6152 96.918 24.6016C97.6699 25.5879 98.7441 26.0811 100.141 26.0811ZM119.271 26.4326C118.217 27.6729 116.669 28.293 114.628 28.293C112.938 28.293 111.649 27.8047 110.761 26.8281C109.882 25.8418 109.438 24.3867 109.428 22.4629V12.1504H112.138V22.3896C112.138 24.792 113.114 25.9932 115.067 25.9932C117.138 25.9932 118.515 25.2217 119.198 23.6787V12.1504H121.908V28H119.33L119.271 26.4326ZM128.588 12.1504L128.661 13.9082C129.823 12.541 131.391 11.8574 133.363 11.8574C135.58 11.8574 137.089 12.707 137.89 14.4062C138.417 13.6445 139.101 13.0293 139.94 12.5605C140.79 12.0918 141.791 11.8574 142.943 11.8574C146.42 11.8574 148.188 13.6982 148.246 17.3799V28H145.536V17.541C145.536 16.4082 145.277 15.5635 144.76 15.0068C144.242 14.4404 143.373 14.1572 142.152 14.1572C141.146 14.1572 140.312 14.46 139.647 15.0654C138.983 15.6611 138.598 16.4668 138.49 17.4824V28H135.766V17.6143C135.766 15.3096 134.638 14.1572 132.382 14.1572C130.604 14.1572 129.389 14.9141 128.734 16.4277V28H126.024V12.1504H128.588ZM162.133 26.4326C161.078 27.6729 159.53 28.293 157.489 28.293C155.8 28.293 154.511 27.8047 153.622 26.8281C152.743 25.8418 152.299 24.3867 152.289 22.4629V12.1504H154.999V22.3896C154.999 24.792 155.976 25.9932 157.929 25.9932C159.999 25.9932 161.376 25.2217 162.06 23.6787V12.1504H164.77V28H162.191L162.133 26.4326ZM171.845 28H169.135V5.5H171.845V28ZM185.98 28C185.824 27.6875 185.697 27.1309 185.6 26.3301C184.34 27.6387 182.836 28.293 181.088 28.293C179.525 28.293 178.241 27.8535 177.235 26.9746C176.239 26.0859 175.741 24.9629 175.741 23.6055C175.741 21.9551 176.366 20.6758 177.616 19.7676C178.876 18.8496 180.644 18.3906 182.919 18.3906H185.556V17.1455C185.556 16.1982 185.272 15.4463 184.706 14.8896C184.14 14.3232 183.305 14.04 182.201 14.04C181.234 14.04 180.424 14.2842 179.77 14.7725C179.115 15.2607 178.788 15.8516 178.788 16.5449H176.063C176.063 15.7539 176.342 14.9922 176.898 14.2598C177.465 13.5176 178.227 12.9316 179.184 12.502C180.15 12.0723 181.21 11.8574 182.362 11.8574C184.188 11.8574 185.619 12.3164 186.654 13.2344C187.689 14.1426 188.227 15.3975 188.266 16.999V24.2939C188.266 25.749 188.451 26.9062 188.822 27.7656V28H185.98ZM181.483 25.9346C182.333 25.9346 183.139 25.7148 183.9 25.2754C184.662 24.8359 185.214 24.2646 185.556 23.5615V20.3096H183.432C180.111 20.3096 178.451 21.2812 178.451 23.2246C178.451 24.0742 178.734 24.7383 179.301 25.2168C179.867 25.6953 180.595 25.9346 181.483 25.9346ZM191.854 19.9434C191.854 17.5117 192.431 15.5586 193.583 14.084C194.735 12.5996 196.244 11.8574 198.109 11.8574C199.965 11.8574 201.435 12.4922 202.519 13.7617V5.5H205.229V28H202.738L202.606 26.3008C201.522 27.6289 200.014 28.293 198.08 28.293C196.244 28.293 194.745 27.541 193.583 26.0371C192.431 24.5332 191.854 22.5703 191.854 20.1484V19.9434ZM194.564 20.251C194.564 22.0479 194.936 23.4541 195.678 24.4697C196.42 25.4854 197.445 25.9932 198.754 25.9932C200.473 25.9932 201.728 25.2217 202.519 23.6787V16.3984C201.708 14.9043 200.463 14.1572 198.783 14.1572C197.455 14.1572 196.42 14.6699 195.678 15.6953C194.936 16.7207 194.564 18.2393 194.564 20.251ZM208.729 19.9287C208.729 18.376 209.032 16.9795 209.638 15.7393C210.253 14.499 211.103 13.542 212.187 12.8682C213.28 12.1943 214.525 11.8574 215.922 11.8574C218.08 11.8574 219.823 12.6045 221.151 14.0986C222.489 15.5928 223.158 17.5801 223.158 20.0605V20.251C223.158 21.7939 222.86 23.1807 222.265 24.4111C221.679 25.6318 220.834 26.584 219.73 27.2676C218.637 27.9512 217.377 28.293 215.951 28.293C213.803 28.293 212.06 27.5459 210.722 26.0518C209.394 24.5576 208.729 22.5801 208.729 20.1191V19.9287ZM211.454 20.251C211.454 22.0088 211.859 23.4199 212.67 24.4844C213.49 25.5488 214.584 26.0811 215.951 26.0811C217.328 26.0811 218.422 25.5439 219.232 24.4697C220.043 23.3857 220.448 21.8721 220.448 19.9287C220.448 18.1904 220.033 16.7842 219.203 15.71C218.383 14.626 217.289 14.084 215.922 14.084C214.584 14.084 213.505 14.6162 212.685 15.6807C211.864 16.7451 211.454 18.2686 211.454 20.251ZM125.131 47.1504L125.204 48.9082C126.366 47.541 127.934 46.8574 129.906 46.8574C132.123 46.8574 133.632 47.707 134.433 49.4062C134.96 48.6445 135.644 48.0293 136.483 47.5605C137.333 47.0918 138.334 46.8574 139.486 46.8574C142.963 46.8574 144.73 48.6982 144.789 52.3799V63H142.079V52.541C142.079 51.4082 141.82 50.5635 141.303 50.0068C140.785 49.4404 139.916 49.1572 138.695 49.1572C137.689 49.1572 136.854 49.46 136.19 50.0654C135.526 50.6611 135.141 51.4668 135.033 52.4824V63H132.309V52.6143C132.309 50.3096 131.181 49.1572 128.925 49.1572C127.147 49.1572 125.932 49.9141 125.277 51.4277V63H122.567V47.1504H125.131ZM151.835 63H149.125V47.1504H151.835V63ZM148.905 42.9463C148.905 42.5068 149.037 42.1357 149.301 41.833C149.574 41.5303 149.975 41.3789 150.502 41.3789C151.029 41.3789 151.43 41.5303 151.703 41.833C151.977 42.1357 152.113 42.5068 152.113 42.9463C152.113 43.3857 151.977 43.752 151.703 44.0449C151.43 44.3379 151.029 44.4844 150.502 44.4844C149.975 44.4844 149.574 44.3379 149.301 44.0449C149.037 43.752 148.905 43.3857 148.905 42.9463ZM159.13 63H156.42V40.5H159.13V63ZM166.19 49.0693C167.392 47.5947 168.954 46.8574 170.878 46.8574C174.228 46.8574 175.917 48.7471 175.946 52.5264V63H173.236V52.5117C173.227 51.3691 172.963 50.5244 172.445 49.9775C171.938 49.4307 171.142 49.1572 170.058 49.1572C169.179 49.1572 168.407 49.3916 167.743 49.8604C167.079 50.3291 166.562 50.9443 166.19 51.7061V63H163.48V40.5H166.19V49.0693ZM189.789 63C189.633 62.6875 189.506 62.1309 189.408 61.3301C188.148 62.6387 186.645 63.293 184.896 63.293C183.334 63.293 182.05 62.8535 181.044 61.9746C180.048 61.0859 179.55 59.9629 179.55 58.6055C179.55 56.9551 180.175 55.6758 181.425 54.7676C182.685 53.8496 184.452 53.3906 186.728 53.3906H189.364V52.1455C189.364 51.1982 189.081 50.4463 188.515 49.8896C187.948 49.3232 187.113 49.04 186.01 49.04C185.043 49.04 184.232 49.2842 183.578 49.7725C182.924 50.2607 182.597 50.8516 182.597 51.5449H179.872C179.872 50.7539 180.15 49.9922 180.707 49.2598C181.273 48.5176 182.035 47.9316 182.992 47.502C183.959 47.0723 185.019 46.8574 186.171 46.8574C187.997 46.8574 189.428 47.3164 190.463 48.2344C191.498 49.1426 192.035 50.3975 192.074 51.999V59.2939C192.074 60.749 192.26 61.9062 192.631 62.7656V63H189.789ZM185.292 60.9346C186.142 60.9346 186.947 60.7148 187.709 60.2754C188.471 59.8359 189.022 59.2646 189.364 58.5615V55.3096H187.24C183.92 55.3096 182.26 56.2812 182.26 58.2246C182.26 59.0742 182.543 59.7383 183.109 60.2168C183.676 60.6953 184.403 60.9346 185.292 60.9346ZM205.551 58.7959C205.551 58.0635 205.272 57.4971 204.716 57.0967C204.169 56.6865 203.207 56.335 201.83 56.042C200.463 55.749 199.374 55.3975 198.563 54.9873C197.763 54.5771 197.167 54.0889 196.776 53.5225C196.396 52.9561 196.205 52.2822 196.205 51.501C196.205 50.2021 196.752 49.1035 197.846 48.2051C198.949 47.3066 200.355 46.8574 202.064 46.8574C203.861 46.8574 205.316 47.3213 206.43 48.249C207.553 49.1768 208.114 50.3633 208.114 51.8086H205.39C205.39 51.0664 205.072 50.4268 204.438 49.8896C203.812 49.3525 203.021 49.084 202.064 49.084C201.078 49.084 200.307 49.2988 199.75 49.7285C199.193 50.1582 198.915 50.7197 198.915 51.4131C198.915 52.0674 199.174 52.5605 199.691 52.8926C200.209 53.2246 201.142 53.542 202.489 53.8447C203.847 54.1475 204.945 54.5088 205.785 54.9287C206.625 55.3486 207.245 55.8564 207.646 56.4521C208.056 57.0381 208.261 57.7559 208.261 58.6055C208.261 60.0215 207.694 61.1592 206.562 62.0186C205.429 62.8682 203.959 63.293 202.152 63.293C200.883 63.293 199.76 63.0684 198.783 62.6191C197.807 62.1699 197.04 61.5449 196.483 60.7441C195.937 59.9336 195.663 59.0596 195.663 58.1221H198.373C198.422 59.0303 198.783 59.7529 199.457 60.29C200.141 60.8174 201.039 61.0811 202.152 61.0811C203.178 61.0811 203.998 60.876 204.613 60.4658C205.238 60.0459 205.551 59.4893 205.551 58.7959Z" fill="black"/>
<path d="M3.08008 52.5117L4.31055 41.6719H16.2637V45.2021H7.78223L7.25488 49.7871C8.26074 49.25 9.33008 48.9814 10.4629 48.9814C12.4941 48.9814 14.0859 49.6113 15.2383 50.8711C16.3906 52.1309 16.9668 53.8936 16.9668 56.1592C16.9668 57.5361 16.6738 58.7715 16.0879 59.8652C15.5117 60.9492 14.6816 61.7939 13.5977 62.3994C12.5137 62.9951 11.2344 63.293 9.75977 63.293C8.4707 63.293 7.27441 63.0342 6.1709 62.5166C5.06738 61.9893 4.19336 61.252 3.54883 60.3047C2.91406 59.3574 2.57715 58.2783 2.53809 57.0674H6.72754C6.81543 57.9561 7.12305 58.6494 7.65039 59.1475C8.1875 59.6357 8.88574 59.8799 9.74512 59.8799C10.7021 59.8799 11.4395 59.5381 11.957 58.8545C12.4746 58.1611 12.7334 57.1846 12.7334 55.9248C12.7334 54.7139 12.4355 53.7861 11.8398 53.1416C11.2441 52.4971 10.3994 52.1748 9.30566 52.1748C8.2998 52.1748 7.48438 52.4385 6.85938 52.9658L6.44922 53.3467L3.08008 52.5117ZM34.0322 54.1816C34.0322 57.1309 33.4219 59.3867 32.2012 60.9492C30.9805 62.5117 29.1934 63.293 26.8398 63.293C24.5156 63.293 22.7383 62.5264 21.5078 60.9932C20.2773 59.46 19.6475 57.2627 19.6182 54.4014V50.4756C19.6182 47.4971 20.2334 45.2363 21.4639 43.6934C22.7041 42.1504 24.4863 41.3789 26.8105 41.3789C29.1348 41.3789 30.9121 42.1455 32.1426 43.6787C33.373 45.2021 34.0029 47.3945 34.0322 50.2559V54.1816ZM29.7988 49.875C29.7988 48.1074 29.5547 46.8232 29.0664 46.0225C28.5879 45.2119 27.8359 44.8066 26.8105 44.8066C25.8145 44.8066 25.0771 45.1924 24.5986 45.9639C24.1299 46.7256 23.8809 47.9219 23.8516 49.5527V54.7383C23.8516 56.4766 24.0859 57.7705 24.5547 58.6201C25.0332 59.46 25.7949 59.8799 26.8398 59.8799C27.875 59.8799 28.6221 59.4746 29.0811 58.6641C29.54 57.8535 29.7793 56.6133 29.7988 54.9434V49.875ZM51.2588 54.1816C51.2588 57.1309 50.6484 59.3867 49.4277 60.9492C48.207 62.5117 46.4199 63.293 44.0664 63.293C41.7422 63.293 39.9648 62.5264 38.7344 60.9932C37.5039 59.46 36.874 57.2627 36.8447 54.4014V50.4756C36.8447 47.4971 37.46 45.2363 38.6904 43.6934C39.9307 42.1504 41.7129 41.3789 44.0371 41.3789C46.3613 41.3789 48.1387 42.1455 49.3691 43.6787C50.5996 45.2021 51.2295 47.3945 51.2588 50.2559V54.1816ZM47.0254 49.875C47.0254 48.1074 46.7812 46.8232 46.293 46.0225C45.8145 45.2119 45.0625 44.8066 44.0371 44.8066C43.041 44.8066 42.3037 45.1924 41.8252 45.9639C41.3564 46.7256 41.1074 47.9219 41.0781 49.5527V54.7383C41.0781 56.4766 41.3125 57.7705 41.7812 58.6201C42.2598 59.46 43.0215 59.8799 44.0664 59.8799C45.1016 59.8799 45.8486 59.4746 46.3076 58.6641C46.7666 57.8535 47.0059 56.6133 47.0254 54.9434V49.875ZM54.5254 60.9199C54.5254 60.2461 54.75 59.6992 55.1992 59.2793C55.6582 58.8594 56.2295 58.6494 56.9131 58.6494C57.6064 58.6494 58.1777 58.8594 58.627 59.2793C59.0859 59.6992 59.3154 60.2461 59.3154 60.9199C59.3154 61.584 59.0908 62.126 58.6416 62.5459C58.1924 62.9561 57.6162 63.1611 56.9131 63.1611C56.2197 63.1611 55.6484 62.9561 55.1992 62.5459C54.75 62.126 54.5254 61.584 54.5254 60.9199ZM77.2158 54.1816C77.2158 57.1309 76.6055 59.3867 75.3848 60.9492C74.1641 62.5117 72.377 63.293 70.0234 63.293C67.6992 63.293 65.9219 62.5264 64.6914 60.9932C63.4609 59.46 62.8311 57.2627 62.8018 54.4014V50.4756C62.8018 47.4971 63.417 45.2363 64.6475 43.6934C65.8877 42.1504 67.6699 41.3789 69.9941 41.3789C72.3184 41.3789 74.0957 42.1455 75.3262 43.6787C76.5566 45.2021 77.1865 47.3945 77.2158 50.2559V54.1816ZM72.9824 49.875C72.9824 48.1074 72.7383 46.8232 72.25 46.0225C71.7715 45.2119 71.0195 44.8066 69.9941 44.8066C68.998 44.8066 68.2607 45.1924 67.7822 45.9639C67.3135 46.7256 67.0645 47.9219 67.0352 49.5527V54.7383C67.0352 56.4766 67.2695 57.7705 67.7383 58.6201C68.2168 59.46 68.9785 59.8799 70.0234 59.8799C71.0586 59.8799 71.8057 59.4746 72.2646 58.6641C72.7236 57.8535 72.9629 56.6133 72.9824 54.9434V49.875ZM94.4424 54.1816C94.4424 57.1309 93.832 59.3867 92.6113 60.9492C91.3906 62.5117 89.6035 63.293 87.25 63.293C84.9258 63.293 83.1484 62.5264 81.918 60.9932C80.6875 59.46 80.0576 57.2627 80.0283 54.4014V50.4756C80.0283 47.4971 80.6436 45.2363 81.874 43.6934C83.1143 42.1504 84.8965 41.3789 87.2207 41.3789C89.5449 41.3789 91.3223 42.1455 92.5527 43.6787C93.7832 45.2021 94.4131 47.3945 94.4424 50.2559V54.1816ZM90.209 49.875C90.209 48.1074 89.9648 46.8232 89.4766 46.0225C88.998 45.2119 88.2461 44.8066 87.2207 44.8066C86.2246 44.8066 85.4873 45.1924 85.0088 45.9639C84.54 46.7256 84.291 47.9219 84.2617 49.5527V54.7383C84.2617 56.4766 84.4961 57.7705 84.9648 58.6201C85.4434 59.46 86.2051 59.8799 87.25 59.8799C88.2852 59.8799 89.0322 59.4746 89.4912 58.6641C89.9502 57.8535 90.1895 56.6133 90.209 54.9434V49.875ZM111.669 54.1816C111.669 57.1309 111.059 59.3867 109.838 60.9492C108.617 62.5117 106.83 63.293 104.477 63.293C102.152 63.293 100.375 62.5264 99.1445 60.9932C97.9141 59.46 97.2842 57.2627 97.2549 54.4014V50.4756C97.2549 47.4971 97.8701 45.2363 99.1006 43.6934C100.341 42.1504 102.123 41.3789 104.447 41.3789C106.771 41.3789 108.549 42.1455 109.779 43.6787C111.01 45.2021 111.64 47.3945 111.669 50.2559V54.1816ZM107.436 49.875C107.436 48.1074 107.191 46.8232 106.703 46.0225C106.225 45.2119 105.473 44.8066 104.447 44.8066C103.451 44.8066 102.714 45.1924 102.235 45.9639C101.767 46.7256 101.518 47.9219 101.488 49.5527V54.7383C101.488 56.4766 101.723 57.7705 102.191 58.6201C102.67 59.46 103.432 59.8799 104.477 59.8799C105.512 59.8799 106.259 59.4746 106.718 58.6641C107.177 57.8535 107.416 56.6133 107.436 54.9434V49.875Z" fill="#5D3189"/>
<path d="M983.899 8.98633H977.044V28H974.246V8.98633H967.405V6.67188H983.899V8.98633ZM984.456 19.9287C984.456 18.376 984.759 16.9795 985.364 15.7393C985.979 14.499 986.829 13.542 987.913 12.8682C989.007 12.1943 990.252 11.8574 991.648 11.8574C993.807 11.8574 995.55 12.6045 996.878 14.0986C998.216 15.5928 998.885 17.5801 998.885 20.0605V20.251C998.885 21.7939 998.587 23.1807 997.991 24.4111C997.405 25.6318 996.561 26.584 995.457 27.2676C994.363 27.9512 993.104 28.293 991.678 28.293C989.529 28.293 987.786 27.5459 986.448 26.0518C985.12 24.5576 984.456 22.5801 984.456 20.1191V19.9287ZM987.181 20.251C987.181 22.0088 987.586 23.4199 988.396 24.4844C989.217 25.5488 990.311 26.0811 991.678 26.0811C993.055 26.0811 994.148 25.5439 994.959 24.4697C995.77 23.3857 996.175 21.8721 996.175 19.9287C996.175 18.1904 995.76 16.7842 994.93 15.71C994.109 14.626 993.016 14.084 991.648 14.084C990.311 14.084 989.231 14.6162 988.411 15.6807C987.591 16.7451 987.181 18.2686 987.181 20.251ZM1005.96 8.3125V12.1504H1008.92V14.2451H1005.96V24.0742C1005.96 24.709 1006.09 25.1875 1006.36 25.5098C1006.62 25.8223 1007.07 25.9785 1007.7 25.9785C1008.02 25.9785 1008.45 25.9199 1008.99 25.8027V28C1008.28 28.1953 1007.59 28.293 1006.91 28.293C1005.7 28.293 1004.79 27.9268 1004.17 27.1943C1003.56 26.4619 1003.25 25.4219 1003.25 24.0742V14.2451H1000.36V12.1504H1003.25V8.3125H1005.96ZM1021.88 28C1021.73 27.6875 1021.6 27.1309 1021.5 26.3301C1020.24 27.6387 1018.74 28.293 1016.99 28.293C1015.43 28.293 1014.14 27.8535 1013.14 26.9746C1012.14 26.0859 1011.64 24.9629 1011.64 23.6055C1011.64 21.9551 1012.27 20.6758 1013.52 19.7676C1014.78 18.8496 1016.55 18.3906 1018.82 18.3906H1021.46V17.1455C1021.46 16.1982 1021.17 15.4463 1020.61 14.8896C1020.04 14.3232 1019.21 14.04 1018.1 14.04C1017.14 14.04 1016.33 14.2842 1015.67 14.7725C1015.02 15.2607 1014.69 15.8516 1014.69 16.5449H1011.97C1011.97 15.7539 1012.24 14.9922 1012.8 14.2598C1013.37 13.5176 1014.13 12.9316 1015.09 12.502C1016.05 12.0723 1017.11 11.8574 1018.26 11.8574C1020.09 11.8574 1021.52 12.3164 1022.56 13.2344C1023.59 14.1426 1024.13 15.3975 1024.17 16.999V24.2939C1024.17 25.749 1024.35 26.9062 1024.72 27.7656V28H1021.88ZM1017.39 25.9346C1018.24 25.9346 1019.04 25.7148 1019.8 25.2754C1020.56 24.8359 1021.12 24.2646 1021.46 23.5615V20.3096H1019.33C1016.01 20.3096 1014.35 21.2812 1014.35 23.2246C1014.35 24.0742 1014.64 24.7383 1015.2 25.2168C1015.77 25.6953 1016.5 25.9346 1017.39 25.9346ZM1031.36 28H1028.65V5.5H1031.36V28ZM1045.72 12.1504L1045.8 14.1426C1047.01 12.6191 1048.6 11.8574 1050.55 11.8574C1053.9 11.8574 1055.59 13.7471 1055.62 17.5264V28H1052.91V17.5117C1052.9 16.3691 1052.63 15.5244 1052.12 14.9775C1051.61 14.4307 1050.81 14.1572 1049.73 14.1572C1048.85 14.1572 1048.08 14.3916 1047.42 14.8604C1046.75 15.3291 1046.23 15.9443 1045.86 16.7061V28H1043.15V12.1504H1045.72ZM1066.28 28.293C1064.13 28.293 1062.39 27.5898 1061.04 26.1836C1059.69 24.7676 1059.02 22.8779 1059.02 20.5146V20.0166C1059.02 18.4443 1059.31 17.043 1059.91 15.8125C1060.52 14.5723 1061.36 13.6055 1062.43 12.9121C1063.51 12.209 1064.69 11.8574 1065.95 11.8574C1068.01 11.8574 1069.61 12.5361 1070.75 13.8936C1071.89 15.251 1072.46 17.1943 1072.46 19.7236V20.8516H1061.73C1061.77 22.4141 1062.22 23.6787 1063.09 24.6455C1063.97 25.6025 1065.08 26.0811 1066.43 26.0811C1067.39 26.0811 1068.2 25.8857 1068.86 25.4951C1069.52 25.1045 1070.11 24.5869 1070.6 23.9424L1072.26 25.2314C1070.93 27.2725 1068.94 28.293 1066.28 28.293ZM1065.95 14.084C1064.85 14.084 1063.93 14.4844 1063.19 15.2852C1062.45 16.0762 1061.99 17.1895 1061.81 18.625H1069.75V18.4199C1069.68 17.043 1069.3 15.9785 1068.64 15.2266C1067.98 14.4648 1067.08 14.084 1065.95 14.084ZM1081.97 26.0811C1082.94 26.0811 1083.78 25.7881 1084.5 25.2021C1085.23 24.6162 1085.63 23.8838 1085.71 23.0049H1088.27C1088.22 23.9131 1087.91 24.7773 1087.33 25.5977C1086.76 26.418 1085.98 27.0723 1085.02 27.5605C1084.06 28.0488 1083.04 28.293 1081.97 28.293C1079.81 28.293 1078.09 27.5752 1076.81 26.1396C1075.54 24.6943 1074.91 22.7217 1074.91 20.2217V19.7676C1074.91 18.2246 1075.19 16.8525 1075.76 15.6514C1076.33 14.4502 1077.14 13.5176 1078.19 12.8535C1079.26 12.1895 1080.51 11.8574 1081.96 11.8574C1083.73 11.8574 1085.21 12.3896 1086.38 13.4541C1087.56 14.5186 1088.19 15.9004 1088.27 17.5996H1085.71C1085.63 16.5742 1085.24 15.7344 1084.53 15.0801C1083.84 14.416 1082.98 14.084 1081.96 14.084C1080.58 14.084 1079.51 14.582 1078.75 15.5781C1078 16.5645 1077.62 17.9951 1077.62 19.8701V20.3828C1077.62 22.209 1078 23.6152 1078.75 24.6016C1079.5 25.5879 1080.57 26.0811 1081.97 26.0811ZM1097.89 28.293C1095.75 28.293 1094 27.5898 1092.65 26.1836C1091.3 24.7676 1090.63 22.8779 1090.63 20.5146V20.0166C1090.63 18.4443 1090.93 17.043 1091.52 15.8125C1092.13 14.5723 1092.97 13.6055 1094.04 12.9121C1095.12 12.209 1096.3 11.8574 1097.56 11.8574C1099.62 11.8574 1101.22 12.5361 1102.36 13.8936C1103.5 15.251 1104.08 17.1943 1104.08 19.7236V20.8516H1093.34C1093.38 22.4141 1093.83 23.6787 1094.7 24.6455C1095.58 25.6025 1096.69 26.0811 1098.04 26.0811C1099 26.0811 1099.81 25.8857 1100.47 25.4951C1101.14 25.1045 1101.72 24.5869 1102.21 23.9424L1103.87 25.2314C1102.54 27.2725 1100.55 28.293 1097.89 28.293ZM1097.56 14.084C1096.46 14.084 1095.54 14.4844 1094.8 15.2852C1094.06 16.0762 1093.6 17.1895 1093.43 18.625H1101.37V18.4199C1101.29 17.043 1100.92 15.9785 1100.25 15.2266C1099.59 14.4648 1098.69 14.084 1097.56 14.084ZM1116.45 23.7959C1116.45 23.0635 1116.17 22.4971 1115.62 22.0967C1115.07 21.6865 1114.11 21.335 1112.73 21.042C1111.37 20.749 1110.28 20.3975 1109.47 19.9873C1108.67 19.5771 1108.07 19.0889 1107.68 18.5225C1107.3 17.9561 1107.11 17.2822 1107.11 16.501C1107.11 15.2021 1107.65 14.1035 1108.75 13.2051C1109.85 12.3066 1111.26 11.8574 1112.97 11.8574C1114.76 11.8574 1116.22 12.3213 1117.33 13.249C1118.46 14.1768 1119.02 15.3633 1119.02 16.8086H1116.29C1116.29 16.0664 1115.97 15.4268 1115.34 14.8896C1114.71 14.3525 1113.92 14.084 1112.97 14.084C1111.98 14.084 1111.21 14.2988 1110.65 14.7285C1110.1 15.1582 1109.82 15.7197 1109.82 16.4131C1109.82 17.0674 1110.08 17.5605 1110.59 17.8926C1111.11 18.2246 1112.04 18.542 1113.39 18.8447C1114.75 19.1475 1115.85 19.5088 1116.69 19.9287C1117.53 20.3486 1118.15 20.8564 1118.55 21.4521C1118.96 22.0381 1119.16 22.7559 1119.16 23.6055C1119.16 25.0215 1118.6 26.1592 1117.46 27.0186C1116.33 27.8682 1114.86 28.293 1113.05 28.293C1111.79 28.293 1110.66 28.0684 1109.69 27.6191C1108.71 27.1699 1107.94 26.5449 1107.39 25.7441C1106.84 24.9336 1106.57 24.0596 1106.57 23.1221H1109.28C1109.32 24.0303 1109.69 24.7529 1110.36 25.29C1111.04 25.8174 1111.94 26.0811 1113.05 26.0811C1114.08 26.0811 1114.9 25.876 1115.52 25.4658C1116.14 25.0459 1116.45 24.4893 1116.45 23.7959ZM1131.92 23.7959C1131.92 23.0635 1131.64 22.4971 1131.09 22.0967C1130.54 21.6865 1129.58 21.335 1128.2 21.042C1126.83 20.749 1125.75 20.3975 1124.93 19.9873C1124.13 19.5771 1123.54 19.0889 1123.15 18.5225C1122.77 17.9561 1122.58 17.2822 1122.58 16.501C1122.58 15.2021 1123.12 14.1035 1124.22 13.2051C1125.32 12.3066 1126.73 11.8574 1128.44 11.8574C1130.23 11.8574 1131.69 12.3213 1132.8 13.249C1133.92 14.1768 1134.49 15.3633 1134.49 16.8086H1131.76C1131.76 16.0664 1131.44 15.4268 1130.81 14.8896C1130.18 14.3525 1129.39 14.084 1128.44 14.084C1127.45 14.084 1126.68 14.2988 1126.12 14.7285C1125.56 15.1582 1125.29 15.7197 1125.29 16.4131C1125.29 17.0674 1125.54 17.5605 1126.06 17.8926C1126.58 18.2246 1127.51 18.542 1128.86 18.8447C1130.22 19.1475 1131.32 19.5088 1132.16 19.9287C1133 20.3486 1133.62 20.8564 1134.02 21.4521C1134.43 22.0381 1134.63 22.7559 1134.63 23.6055C1134.63 25.0215 1134.07 26.1592 1132.93 27.0186C1131.8 27.8682 1130.33 28.293 1128.52 28.293C1127.25 28.293 1126.13 28.0684 1125.15 27.6191C1124.18 27.1699 1123.41 26.5449 1122.85 25.7441C1122.31 24.9336 1122.03 24.0596 1122.03 23.1221H1124.74C1124.79 24.0303 1125.15 24.7529 1125.83 25.29C1126.51 25.8174 1127.41 26.0811 1128.52 26.0811C1129.55 26.0811 1130.37 25.876 1130.98 25.4658C1131.61 25.0459 1131.92 24.4893 1131.92 23.7959ZM1147.95 28C1147.79 27.6875 1147.66 27.1309 1147.57 26.3301C1146.31 27.6387 1144.8 28.293 1143.05 28.293C1141.49 28.293 1140.21 27.8535 1139.2 26.9746C1138.21 26.0859 1137.71 24.9629 1137.71 23.6055C1137.71 21.9551 1138.33 20.6758 1139.58 19.7676C1140.84 18.8496 1142.61 18.3906 1144.89 18.3906H1147.52V17.1455C1147.52 16.1982 1147.24 15.4463 1146.67 14.8896C1146.11 14.3232 1145.27 14.04 1144.17 14.04C1143.2 14.04 1142.39 14.2842 1141.74 14.7725C1141.08 15.2607 1140.75 15.8516 1140.75 16.5449H1138.03C1138.03 15.7539 1138.31 14.9922 1138.87 14.2598C1139.43 13.5176 1140.19 12.9316 1141.15 12.502C1142.12 12.0723 1143.18 11.8574 1144.33 11.8574C1146.16 11.8574 1147.59 12.3164 1148.62 13.2344C1149.66 14.1426 1150.19 15.3975 1150.23 16.999V24.2939C1150.23 25.749 1150.42 26.9062 1150.79 27.7656V28H1147.95ZM1143.45 25.9346C1144.3 25.9346 1145.11 25.7148 1145.87 25.2754C1146.63 24.8359 1147.18 24.2646 1147.52 23.5615V20.3096H1145.4C1142.08 20.3096 1140.42 21.2812 1140.42 23.2246C1140.42 24.0742 1140.7 24.7383 1141.27 25.2168C1141.83 25.6953 1142.56 25.9346 1143.45 25.9346ZM1145.96 5.5H1149.24L1145.31 9.80664H1143.13L1145.96 5.5ZM1162.14 14.582C1161.73 14.5137 1161.29 14.4795 1160.81 14.4795C1159.03 14.4795 1157.83 15.2363 1157.19 16.75V28H1154.48V12.1504H1157.12L1157.16 13.9814C1158.05 12.5654 1159.31 11.8574 1160.94 11.8574C1161.47 11.8574 1161.87 11.9258 1162.14 12.0625V14.582ZM1167.59 28H1164.88V12.1504H1167.59V28ZM1164.66 7.94629C1164.66 7.50684 1164.79 7.13574 1165.06 6.83301C1165.33 6.53027 1165.73 6.37891 1166.26 6.37891C1166.79 6.37891 1167.19 6.53027 1167.46 6.83301C1167.73 7.13574 1167.87 7.50684 1167.87 7.94629C1167.87 8.38574 1167.73 8.75195 1167.46 9.04492C1167.19 9.33789 1166.79 9.48438 1166.26 9.48438C1165.73 9.48438 1165.33 9.33789 1165.06 9.04492C1164.79 8.75195 1164.66 8.38574 1164.66 7.94629ZM1171.22 19.9287C1171.22 18.376 1171.53 16.9795 1172.13 15.7393C1172.75 14.499 1173.6 13.542 1174.68 12.8682C1175.77 12.1943 1177.02 11.8574 1178.42 11.8574C1180.57 11.8574 1182.32 12.6045 1183.65 14.0986C1184.98 15.5928 1185.65 17.5801 1185.65 20.0605V20.251C1185.65 21.7939 1185.35 23.1807 1184.76 24.4111C1184.17 25.6318 1183.33 26.584 1182.22 27.2676C1181.13 27.9512 1179.87 28.293 1178.45 28.293C1176.3 28.293 1174.55 27.5459 1173.22 26.0518C1171.89 24.5576 1171.22 22.5801 1171.22 20.1191V19.9287ZM1173.95 20.251C1173.95 22.0088 1174.35 23.4199 1175.16 24.4844C1175.98 25.5488 1177.08 26.0811 1178.45 26.0811C1179.82 26.0811 1180.92 25.5439 1181.73 24.4697C1182.54 23.3857 1182.94 21.8721 1182.94 19.9287C1182.94 18.1904 1182.53 16.7842 1181.7 15.71C1180.88 14.626 1179.78 14.084 1178.42 14.084C1177.08 14.084 1176 14.6162 1175.18 15.6807C1174.36 16.7451 1173.95 18.2686 1173.95 20.251ZM1102.39 47.1504L1102.46 48.9082C1103.63 47.541 1105.19 46.8574 1107.17 46.8574C1109.38 46.8574 1110.89 47.707 1111.69 49.4062C1112.22 48.6445 1112.9 48.0293 1113.74 47.5605C1114.59 47.0918 1115.59 46.8574 1116.75 46.8574C1120.22 46.8574 1121.99 48.6982 1122.05 52.3799V63H1119.34V52.541C1119.34 51.4082 1119.08 50.5635 1118.56 50.0068C1118.04 49.4404 1117.18 49.1572 1115.96 49.1572C1114.95 49.1572 1114.11 49.46 1113.45 50.0654C1112.79 50.6611 1112.4 51.4668 1112.29 52.4824V63H1109.57V52.6143C1109.57 50.3096 1108.44 49.1572 1106.18 49.1572C1104.41 49.1572 1103.19 49.9141 1102.54 51.4277V63H1099.83V47.1504H1102.39ZM1129.09 63H1126.38V47.1504H1129.09V63ZM1126.17 42.9463C1126.17 42.5068 1126.3 42.1357 1126.56 41.833C1126.83 41.5303 1127.23 41.3789 1127.76 41.3789C1128.29 41.3789 1128.69 41.5303 1128.96 41.833C1129.24 42.1357 1129.37 42.5068 1129.37 42.9463C1129.37 43.3857 1129.24 43.752 1128.96 44.0449C1128.69 44.3379 1128.29 44.4844 1127.76 44.4844C1127.23 44.4844 1126.83 44.3379 1126.56 44.0449C1126.3 43.752 1126.17 43.3857 1126.17 42.9463ZM1136.39 63H1133.68V40.5H1136.39V63ZM1143.45 49.0693C1144.65 47.5947 1146.21 46.8574 1148.14 46.8574C1151.49 46.8574 1153.18 48.7471 1153.21 52.5264V63H1150.5V52.5117C1150.49 51.3691 1150.22 50.5244 1149.71 49.9775C1149.2 49.4307 1148.4 49.1572 1147.32 49.1572C1146.44 49.1572 1145.67 49.3916 1145 49.8604C1144.34 50.3291 1143.82 50.9443 1143.45 51.7061V63H1140.74V40.5H1143.45V49.0693ZM1167.05 63C1166.89 62.6875 1166.77 62.1309 1166.67 61.3301C1165.41 62.6387 1163.9 63.293 1162.16 63.293C1160.59 63.293 1159.31 62.8535 1158.3 61.9746C1157.31 61.0859 1156.81 59.9629 1156.81 58.6055C1156.81 56.9551 1157.43 55.6758 1158.68 54.7676C1159.94 53.8496 1161.71 53.3906 1163.99 53.3906H1166.62V52.1455C1166.62 51.1982 1166.34 50.4463 1165.77 49.8896C1165.21 49.3232 1164.37 49.04 1163.27 49.04C1162.3 49.04 1161.49 49.2842 1160.84 49.7725C1160.18 50.2607 1159.86 50.8516 1159.86 51.5449H1157.13C1157.13 50.7539 1157.41 49.9922 1157.97 49.2598C1158.53 48.5176 1159.29 47.9316 1160.25 47.502C1161.22 47.0723 1162.28 46.8574 1163.43 46.8574C1165.26 46.8574 1166.69 47.3164 1167.72 48.2344C1168.76 49.1426 1169.29 50.3975 1169.33 51.999V59.2939C1169.33 60.749 1169.52 61.9062 1169.89 62.7656V63H1167.05ZM1162.55 60.9346C1163.4 60.9346 1164.21 60.7148 1164.97 60.2754C1165.73 59.8359 1166.28 59.2646 1166.62 58.5615V55.3096H1164.5C1161.18 55.3096 1159.52 56.2812 1159.52 58.2246C1159.52 59.0742 1159.8 59.7383 1160.37 60.2168C1160.94 60.6953 1161.66 60.9346 1162.55 60.9346ZM1182.81 58.7959C1182.81 58.0635 1182.53 57.4971 1181.98 57.0967C1181.43 56.6865 1180.47 56.335 1179.09 56.042C1177.72 55.749 1176.63 55.3975 1175.82 54.9873C1175.02 54.5771 1174.43 54.0889 1174.04 53.5225C1173.66 52.9561 1173.46 52.2822 1173.46 51.501C1173.46 50.2021 1174.01 49.1035 1175.11 48.2051C1176.21 47.3066 1177.62 46.8574 1179.32 46.8574C1181.12 46.8574 1182.58 47.3213 1183.69 48.249C1184.81 49.1768 1185.37 50.3633 1185.37 51.8086H1182.65C1182.65 51.0664 1182.33 50.4268 1181.7 49.8896C1181.07 49.3525 1180.28 49.084 1179.32 49.084C1178.34 49.084 1177.57 49.2988 1177.01 49.7285C1176.45 50.1582 1176.17 50.7197 1176.17 51.4131C1176.17 52.0674 1176.43 52.5605 1176.95 52.8926C1177.47 53.2246 1178.4 53.542 1179.75 53.8447C1181.11 54.1475 1182.21 54.5088 1183.04 54.9287C1183.88 55.3486 1184.5 55.8564 1184.91 56.4521C1185.32 57.0381 1185.52 57.7559 1185.52 58.6055C1185.52 60.0215 1184.95 61.1592 1183.82 62.0186C1182.69 62.8682 1181.22 63.293 1179.41 63.293C1178.14 63.293 1177.02 63.0684 1176.04 62.6191C1175.07 62.1699 1174.3 61.5449 1173.74 60.7441C1173.2 59.9336 1172.92 59.0596 1172.92 58.1221H1175.63C1175.68 59.0303 1176.04 59.7529 1176.72 60.29C1177.4 60.8174 1178.3 61.0811 1179.41 61.0811C1180.44 61.0811 1181.26 60.876 1181.87 60.4658C1182.5 60.0459 1182.81 59.4893 1182.81 58.7959Z" fill="black"/>
<path d="M964.036 63H959.803V46.6816L954.749 48.249V44.8066L963.582 41.6426H964.036V63ZM971.375 60.9199C971.375 60.2461 971.6 59.6992 972.049 59.2793C972.508 58.8594 973.079 58.6494 973.763 58.6494C974.456 58.6494 975.027 58.8594 975.477 59.2793C975.936 59.6992 976.165 60.2461 976.165 60.9199C976.165 61.584 975.94 62.126 975.491 62.5459C975.042 62.9561 974.466 63.1611 973.763 63.1611C973.069 63.1611 972.498 62.9561 972.049 62.5459C971.6 62.126 971.375 61.584 971.375 60.9199ZM989.993 63H985.76V46.6816L980.706 48.249V44.8066L989.539 41.6426H989.993V63ZM1011.44 44.0449L1003.19 63H998.724L1006.99 45.0996H996.38V41.6719H1011.44V44.0449ZM1028.52 54.1816C1028.52 57.1309 1027.91 59.3867 1026.69 60.9492C1025.47 62.5117 1023.68 63.293 1021.33 63.293C1019 63.293 1017.22 62.5264 1015.99 60.9932C1014.76 59.46 1014.13 57.2627 1014.1 54.4014V50.4756C1014.1 47.4971 1014.72 45.2363 1015.95 43.6934C1017.19 42.1504 1018.97 41.3789 1021.3 41.3789C1023.62 41.3789 1025.4 42.1455 1026.63 43.6787C1027.86 45.2021 1028.49 47.3945 1028.52 50.2559V54.1816ZM1024.29 49.875C1024.29 48.1074 1024.04 46.8232 1023.55 46.0225C1023.07 45.2119 1022.32 44.8066 1021.3 44.8066C1020.3 44.8066 1019.56 45.1924 1019.08 45.9639C1018.62 46.7256 1018.37 47.9219 1018.34 49.5527V54.7383C1018.34 56.4766 1018.57 57.7705 1019.04 58.6201C1019.52 59.46 1020.28 59.8799 1021.33 59.8799C1022.36 59.8799 1023.11 59.4746 1023.57 58.6641C1024.03 57.8535 1024.27 56.6133 1024.29 54.9434V49.875ZM1031.79 60.9199C1031.79 60.2461 1032.01 59.6992 1032.46 59.2793C1032.92 58.8594 1033.49 58.6494 1034.17 58.6494C1034.87 58.6494 1035.44 58.8594 1035.89 59.2793C1036.35 59.6992 1036.58 60.2461 1036.58 60.9199C1036.58 61.584 1036.35 62.126 1035.9 62.5459C1035.45 62.9561 1034.88 63.1611 1034.17 63.1611C1033.48 63.1611 1032.91 62.9561 1032.46 62.5459C1032.01 62.126 1031.79 61.584 1031.79 60.9199ZM1054.48 54.1816C1054.48 57.1309 1053.87 59.3867 1052.64 60.9492C1051.42 62.5117 1049.64 63.293 1047.28 63.293C1044.96 63.293 1043.18 62.5264 1041.95 60.9932C1040.72 59.46 1040.09 57.2627 1040.06 54.4014V50.4756C1040.06 47.4971 1040.68 45.2363 1041.91 43.6934C1043.15 42.1504 1044.93 41.3789 1047.25 41.3789C1049.58 41.3789 1051.36 42.1455 1052.59 43.6787C1053.82 45.2021 1054.45 47.3945 1054.48 50.2559V54.1816ZM1050.24 49.875C1050.24 48.1074 1050 46.8232 1049.51 46.0225C1049.03 45.2119 1048.28 44.8066 1047.25 44.8066C1046.26 44.8066 1045.52 45.1924 1045.04 45.9639C1044.57 46.7256 1044.32 47.9219 1044.29 49.5527V54.7383C1044.29 56.4766 1044.53 57.7705 1045 58.6201C1045.48 59.46 1046.24 59.8799 1047.28 59.8799C1048.32 59.8799 1049.07 59.4746 1049.52 58.6641C1049.98 57.8535 1050.22 56.6133 1050.24 54.9434V49.875ZM1071.7 54.1816C1071.7 57.1309 1071.09 59.3867 1069.87 60.9492C1068.65 62.5117 1066.86 63.293 1064.51 63.293C1062.19 63.293 1060.41 62.5264 1059.18 60.9932C1057.95 59.46 1057.32 57.2627 1057.29 54.4014V50.4756C1057.29 47.4971 1057.9 45.2363 1059.13 43.6934C1060.37 42.1504 1062.16 41.3789 1064.48 41.3789C1066.8 41.3789 1068.58 42.1455 1069.81 43.6787C1071.04 45.2021 1071.67 47.3945 1071.7 50.2559V54.1816ZM1067.47 49.875C1067.47 48.1074 1067.22 46.8232 1066.74 46.0225C1066.26 45.2119 1065.51 44.8066 1064.48 44.8066C1063.48 44.8066 1062.75 45.1924 1062.27 45.9639C1061.8 46.7256 1061.55 47.9219 1061.52 49.5527V54.7383C1061.52 56.4766 1061.76 57.7705 1062.22 58.6201C1062.7 59.46 1063.46 59.8799 1064.51 59.8799C1065.54 59.8799 1066.29 59.4746 1066.75 58.6641C1067.21 57.8535 1067.45 56.6133 1067.47 54.9434V49.875ZM1088.93 54.1816C1088.93 57.1309 1088.32 59.3867 1087.1 60.9492C1085.88 62.5117 1084.09 63.293 1081.74 63.293C1079.41 63.293 1077.63 62.5264 1076.4 60.9932C1075.17 59.46 1074.54 57.2627 1074.51 54.4014V50.4756C1074.51 47.4971 1075.13 45.2363 1076.36 43.6934C1077.6 42.1504 1079.38 41.3789 1081.71 41.3789C1084.03 41.3789 1085.81 42.1455 1087.04 43.6787C1088.27 45.2021 1088.9 47.3945 1088.93 50.2559V54.1816ZM1084.7 49.875C1084.7 48.1074 1084.45 46.8232 1083.96 46.0225C1083.48 45.2119 1082.73 44.8066 1081.71 44.8066C1080.71 44.8066 1079.97 45.1924 1079.5 45.9639C1079.03 46.7256 1078.78 47.9219 1078.75 49.5527V54.7383C1078.75 56.4766 1078.98 57.7705 1079.45 58.6201C1079.93 59.46 1080.69 59.8799 1081.74 59.8799C1082.77 59.8799 1083.52 59.4746 1083.98 58.6641C1084.44 57.8535 1084.68 56.6133 1084.7 54.9434V49.875Z" fill="#5D3189"/>
<rect x="0.5" y="93.5" width="556" height="53" rx="19.5" fill="#5D3189" stroke="#5D3189"/>
</svg>
