<svg width="1195" height="909" viewBox="0 0 1195 909" fill="none" xmlns="http://www.w3.org/2000/svg">
<rect x="0.5" y="0.5" width="1194" height="908" rx="9.5" fill="white" stroke="#FF5A00"/>
<path d="M100 641L1039 232" stroke="#23256E" stroke-width="3"/>
<path d="M100 797L228 796" stroke="#23256E" stroke-width="3"/>
<path d="M100 842L228 841" stroke="black" stroke-width="3"/>
<path d="M1119.71 641.707C1120.1 641.317 1120.1 640.683 1119.71 640.293L1113.34 633.929C1112.95 633.538 1112.32 633.538 1111.93 633.929C1111.54 634.319 1111.54 634.953 1111.93 635.343L1117.59 641L1111.93 646.657C1111.54 647.047 1111.54 647.681 1111.93 648.071C1112.32 648.462 1112.95 648.462 1113.34 648.071L1119.71 641.707ZM77 642L1119 642L1119 640L77 640L77 642Z" fill="#7D7D7D"/>
<path d="M100.707 172.293C100.317 171.902 99.6834 171.902 99.2929 172.293L92.929 178.657C92.5384 179.047 92.5384 179.681 92.929 180.071C93.3195 180.462 93.9526 180.462 94.3432 180.071L100 174.414L105.657 180.071C106.047 180.462 106.681 180.462 107.071 180.071C107.462 179.681 107.462 179.047 107.071 178.657L100.707 172.293ZM101 677L101 173L99 173L99 677L101 677Z" fill="#7C7C7C"/>
<path d="M100.001 581L181.607 547.535L234.221 547.741L270.834 516.279L322.756 516.483L360.047 479.574L438.968 479.884L472.782 436.423L542.011 436.695L578.553 376.896L630.475 377.1L661.277 320.247L674.588 474.002" stroke="black" stroke-width="2" stroke-linecap="round" stroke-linejoin="round"/>
<path d="M549.636 663.149V665.075H551.035V666.394H549.636V670.817C549.636 671.12 549.695 671.34 549.812 671.477C549.934 671.608 550.149 671.674 550.457 671.674C550.662 671.674 550.869 671.65 551.079 671.601V672.978C550.674 673.09 550.283 673.146 549.907 673.146C548.54 673.146 547.856 672.392 547.856 670.883V666.394H546.553V665.075H547.856V663.149H549.636ZM555.891 673.146C554.763 673.146 553.848 672.792 553.145 672.084C552.446 671.372 552.097 670.424 552.097 669.243V669.023C552.097 668.232 552.249 667.526 552.551 666.906C552.859 666.281 553.289 665.795 553.84 665.449C554.392 665.102 555.007 664.929 555.686 664.929C556.765 664.929 557.598 665.273 558.184 665.961C558.774 666.65 559.07 667.624 559.07 668.884V669.602H553.892C553.945 670.256 554.163 670.773 554.543 671.154C554.929 671.535 555.413 671.726 555.994 671.726C556.809 671.726 557.473 671.396 557.986 670.737L558.945 671.652C558.628 672.126 558.203 672.495 557.671 672.758C557.144 673.017 556.55 673.146 555.891 673.146ZM555.679 666.357C555.19 666.357 554.795 666.528 554.492 666.87C554.194 667.211 554.004 667.688 553.921 668.298H557.312V668.166C557.273 667.57 557.114 667.121 556.836 666.818C556.558 666.511 556.172 666.357 555.679 666.357ZM562.131 665.075L562.183 665.903C562.739 665.253 563.501 664.929 564.468 664.929C565.527 664.929 566.252 665.334 566.643 666.145C567.219 665.334 568.03 664.929 569.075 664.929C569.949 664.929 570.598 665.17 571.023 665.654C571.453 666.137 571.672 666.85 571.682 667.792V673H569.902V667.844C569.902 667.341 569.792 666.972 569.573 666.738C569.353 666.503 568.989 666.386 568.481 666.386C568.076 666.386 567.744 666.496 567.485 666.716C567.231 666.931 567.053 667.214 566.951 667.565L566.958 673H565.178V667.785C565.154 666.853 564.678 666.386 563.75 666.386C563.037 666.386 562.532 666.677 562.234 667.258V673H560.454V665.075H562.131ZM580.449 669.118C580.449 670.344 580.171 671.323 579.614 672.055C579.058 672.783 578.311 673.146 577.373 673.146C576.504 673.146 575.808 672.861 575.286 672.29V676.047H573.506V665.075H575.146L575.22 665.881C575.742 665.246 576.453 664.929 577.351 664.929C578.318 664.929 579.075 665.29 579.622 666.013C580.173 666.73 580.449 667.729 580.449 669.008V669.118ZM578.677 668.964C578.677 668.173 578.518 667.546 578.201 667.082C577.888 666.618 577.439 666.386 576.853 666.386C576.125 666.386 575.603 666.687 575.286 667.287V670.803C575.608 671.418 576.135 671.726 576.868 671.726C577.434 671.726 577.876 671.499 578.193 671.044C578.516 670.585 578.677 669.892 578.677 668.964ZM581.628 668.964C581.628 668.188 581.782 667.49 582.09 666.87C582.397 666.245 582.83 665.766 583.386 665.434C583.943 665.097 584.583 664.929 585.305 664.929C586.375 664.929 587.241 665.273 587.905 665.961C588.574 666.65 588.936 667.563 588.989 668.701L588.997 669.118C588.997 669.899 588.845 670.598 588.542 671.213C588.245 671.828 587.815 672.304 587.253 672.641C586.697 672.978 586.052 673.146 585.32 673.146C584.202 673.146 583.306 672.775 582.632 672.033C581.963 671.286 581.628 670.292 581.628 669.052V668.964ZM583.408 669.118C583.408 669.934 583.577 670.573 583.914 671.037C584.25 671.496 584.719 671.726 585.32 671.726C585.92 671.726 586.387 671.491 586.719 671.022C587.056 670.554 587.224 669.868 587.224 668.964C587.224 668.164 587.051 667.529 586.704 667.06C586.362 666.591 585.896 666.357 585.305 666.357C584.724 666.357 584.263 666.589 583.921 667.053C583.579 667.512 583.408 668.2 583.408 669.118ZM594.263 668.664C594.263 667.536 594.414 666.467 594.717 665.456C595.02 664.44 595.464 663.535 596.05 662.739C596.636 661.938 597.256 661.376 597.91 661.054L598.262 662.094C597.573 662.617 597.014 663.415 596.584 664.489C596.16 665.559 595.928 666.784 595.889 668.166L595.881 668.796C595.881 670.275 596.089 671.596 596.504 672.758C596.924 673.916 597.51 674.797 598.262 675.402L597.91 676.391C597.256 676.069 596.633 675.505 596.042 674.699C595.457 673.898 595.012 672.995 594.709 671.989C594.412 670.979 594.263 669.87 594.263 668.664ZM601.14 665.075L601.191 665.903C601.748 665.253 602.51 664.929 603.477 664.929C604.536 664.929 605.261 665.334 605.652 666.145C606.228 665.334 607.039 664.929 608.083 664.929C608.958 664.929 609.607 665.17 610.032 665.654C610.461 666.137 610.681 666.85 610.691 667.792V673H608.911V667.844C608.911 667.341 608.801 666.972 608.582 666.738C608.362 666.503 607.998 666.386 607.49 666.386C607.085 666.386 606.753 666.496 606.494 666.716C606.24 666.931 606.062 667.214 605.959 667.565L605.967 673H604.187V667.785C604.163 666.853 603.687 666.386 602.759 666.386C602.046 666.386 601.541 666.677 601.243 667.258V673H599.463V665.075H601.14ZM616.008 673.146C614.88 673.146 613.965 672.792 613.262 672.084C612.563 671.372 612.214 670.424 612.214 669.243V669.023C612.214 668.232 612.366 667.526 612.668 666.906C612.976 666.281 613.406 665.795 613.958 665.449C614.509 665.102 615.125 664.929 615.803 664.929C616.882 664.929 617.715 665.273 618.301 665.961C618.892 666.65 619.187 667.624 619.187 668.884V669.602H614.009C614.062 670.256 614.28 670.773 614.661 671.154C615.046 671.535 615.53 671.726 616.111 671.726C616.926 671.726 617.59 671.396 618.103 670.737L619.062 671.652C618.745 672.126 618.32 672.495 617.788 672.758C617.261 673.017 616.667 673.146 616.008 673.146ZM615.796 666.357C615.308 666.357 614.912 666.528 614.609 666.87C614.312 667.211 614.121 667.688 614.038 668.298H617.429V668.166C617.39 667.57 617.231 667.121 616.953 666.818C616.675 666.511 616.289 666.357 615.796 666.357ZM625.017 670.847C625.017 670.529 624.885 670.288 624.622 670.122C624.363 669.956 623.931 669.809 623.325 669.682C622.72 669.555 622.214 669.394 621.809 669.199C620.92 668.769 620.476 668.146 620.476 667.331C620.476 666.647 620.764 666.076 621.34 665.617C621.917 665.158 622.649 664.929 623.538 664.929C624.485 664.929 625.249 665.163 625.83 665.632C626.416 666.101 626.709 666.708 626.709 667.456H624.929C624.929 667.114 624.802 666.831 624.548 666.606C624.294 666.376 623.958 666.262 623.538 666.262C623.147 666.262 622.827 666.352 622.578 666.533C622.334 666.713 622.212 666.955 622.212 667.258C622.212 667.531 622.327 667.744 622.556 667.895C622.786 668.046 623.25 668.2 623.948 668.356C624.646 668.508 625.193 668.691 625.588 668.906C625.989 669.116 626.284 669.37 626.475 669.667C626.67 669.965 626.768 670.327 626.768 670.751C626.768 671.464 626.472 672.043 625.881 672.487C625.291 672.927 624.517 673.146 623.56 673.146C622.91 673.146 622.332 673.029 621.824 672.795C621.316 672.561 620.92 672.238 620.637 671.828C620.354 671.418 620.212 670.976 620.212 670.502H621.941C621.965 670.922 622.124 671.247 622.417 671.477C622.71 671.701 623.098 671.813 623.582 671.813C624.05 671.813 624.407 671.726 624.651 671.55C624.895 671.369 625.017 671.135 625.017 670.847ZM631.814 673.146C630.686 673.146 629.771 672.792 629.067 672.084C628.369 671.372 628.02 670.424 628.02 669.243V669.023C628.02 668.232 628.171 667.526 628.474 666.906C628.782 666.281 629.211 665.795 629.763 665.449C630.315 665.102 630.93 664.929 631.609 664.929C632.688 664.929 633.521 665.273 634.106 665.961C634.697 666.65 634.993 667.624 634.993 668.884V669.602H629.814C629.868 670.256 630.085 670.773 630.466 671.154C630.852 671.535 631.335 671.726 631.917 671.726C632.732 671.726 633.396 671.396 633.909 670.737L634.868 671.652C634.551 672.126 634.126 672.495 633.594 672.758C633.066 673.017 632.473 673.146 631.814 673.146ZM631.602 666.357C631.113 666.357 630.718 666.528 630.415 666.87C630.117 667.211 629.927 667.688 629.844 668.298H633.235V668.166C633.196 667.57 633.037 667.121 632.759 666.818C632.48 666.511 632.095 666.357 631.602 666.357ZM640.823 670.847C640.823 670.529 640.691 670.288 640.427 670.122C640.168 669.956 639.736 669.809 639.131 669.682C638.525 669.555 638.02 669.394 637.615 669.199C636.726 668.769 636.282 668.146 636.282 667.331C636.282 666.647 636.57 666.076 637.146 665.617C637.722 665.158 638.455 664.929 639.343 664.929C640.291 664.929 641.055 665.163 641.636 665.632C642.222 666.101 642.515 666.708 642.515 667.456H640.735C640.735 667.114 640.608 666.831 640.354 666.606C640.1 666.376 639.763 666.262 639.343 666.262C638.953 666.262 638.633 666.352 638.384 666.533C638.14 666.713 638.018 666.955 638.018 667.258C638.018 667.531 638.132 667.744 638.362 667.895C638.591 668.046 639.055 668.2 639.753 668.356C640.452 668.508 640.999 668.691 641.394 668.906C641.794 669.116 642.09 669.37 642.28 669.667C642.476 669.965 642.573 670.327 642.573 670.751C642.573 671.464 642.278 672.043 641.687 672.487C641.096 672.927 640.322 673.146 639.365 673.146C638.716 673.146 638.137 673.029 637.629 672.795C637.122 672.561 636.726 672.238 636.443 671.828C636.16 671.418 636.018 670.976 636.018 670.502H637.747C637.771 670.922 637.93 671.247 638.223 671.477C638.516 671.701 638.904 671.813 639.387 671.813C639.856 671.813 640.212 671.726 640.457 671.55C640.701 671.369 640.823 671.135 640.823 670.847ZM647.561 668.781C647.561 669.865 647.412 670.913 647.114 671.923C646.816 672.929 646.365 673.845 645.759 674.67C645.154 675.5 644.521 676.074 643.862 676.391L643.511 675.402C644.243 674.836 644.822 673.972 645.247 672.81C645.676 671.643 645.891 670.312 645.891 668.818V668.649C645.891 667.292 645.706 666.057 645.334 664.943C644.963 663.825 644.431 662.929 643.738 662.255L643.511 662.05L643.862 661.054C644.487 661.357 645.093 661.894 645.679 662.666C646.265 663.437 646.714 664.301 647.026 665.258C647.339 666.21 647.515 667.194 647.554 668.21L647.561 668.781Z" fill="#FF5A00"/>
<path d="M105.835 63.2266L110.962 76.8496L116.077 63.2266H120.069V81H116.993V75.1406L117.298 67.3037L112.049 81H109.839L104.603 67.3159L104.908 75.1406V81H101.832V63.2266H105.835ZM129.261 81.2441C127.381 81.2441 125.855 80.6541 124.683 79.4741C123.519 78.286 122.938 76.7072 122.938 74.7378V74.3716C122.938 73.0532 123.19 71.8773 123.694 70.8438C124.207 69.8021 124.923 68.9924 125.843 68.4146C126.762 67.8368 127.788 67.5479 128.919 67.5479C130.717 67.5479 132.105 68.1216 133.082 69.269C134.066 70.4165 134.559 72.04 134.559 74.1396V75.3359H125.928C126.018 76.4264 126.38 77.2891 127.015 77.9238C127.658 78.5586 128.463 78.876 129.432 78.876C130.791 78.876 131.897 78.3267 132.752 77.228L134.351 78.7539C133.822 79.5433 133.114 80.1577 132.227 80.5972C131.348 81.0285 130.359 81.2441 129.261 81.2441ZM128.907 69.9282C128.093 69.9282 127.434 70.2131 126.929 70.7827C126.433 71.3524 126.115 72.1458 125.977 73.1631H131.629V72.9434C131.564 71.9505 131.299 71.2018 130.835 70.6973C130.372 70.1846 129.729 69.9282 128.907 69.9282ZM144.874 79.7061C144.003 80.7314 142.766 81.2441 141.163 81.2441C139.73 81.2441 138.644 80.825 137.903 79.9868C137.171 79.1486 136.805 77.936 136.805 76.3491V67.792H139.771V76.3125C139.771 77.9889 140.467 78.8271 141.858 78.8271C143.299 78.8271 144.271 78.3104 144.776 77.2769V67.792H147.742V81H144.947L144.874 79.7061ZM163.904 70.502C163.514 70.4368 163.111 70.4043 162.696 70.4043C161.337 70.4043 160.421 70.9251 159.949 71.9668V81H156.983V67.792H159.815L159.888 69.269C160.604 68.1216 161.597 67.5479 162.867 67.5479C163.29 67.5479 163.64 67.6048 163.917 67.7188L163.904 70.502ZM171.351 81.2441C169.471 81.2441 167.945 80.6541 166.773 79.4741C165.609 78.286 165.027 76.7072 165.027 74.7378V74.3716C165.027 73.0532 165.28 71.8773 165.784 70.8438C166.297 69.8021 167.013 68.9924 167.933 68.4146C168.852 67.8368 169.878 67.5479 171.009 67.5479C172.807 67.5479 174.195 68.1216 175.171 69.269C176.156 70.4165 176.648 72.04 176.648 74.1396V75.3359H168.018C168.108 76.4264 168.47 77.2891 169.104 77.9238C169.747 78.5586 170.553 78.876 171.521 78.876C172.881 78.876 173.987 78.3267 174.842 77.228L176.441 78.7539C175.912 79.5433 175.204 80.1577 174.317 80.5972C173.438 81.0285 172.449 81.2441 171.351 81.2441ZM170.997 69.9282C170.183 69.9282 169.524 70.2131 169.019 70.7827C168.523 71.3524 168.205 72.1458 168.067 73.1631H173.719V72.9434C173.654 71.9505 173.389 71.2018 172.925 70.6973C172.461 70.1846 171.819 69.9282 170.997 69.9282ZM182.117 81H179.151V62.25H182.117V81ZM193.25 81C193.12 80.7477 193.006 80.3368 192.908 79.7671C191.964 80.7518 190.809 81.2441 189.441 81.2441C188.115 81.2441 187.033 80.8657 186.194 80.1089C185.356 79.3521 184.937 78.4162 184.937 77.3013C184.937 75.8934 185.458 74.8151 186.5 74.0664C187.549 73.3096 189.047 72.9312 190.992 72.9312H192.811V72.0645C192.811 71.3809 192.619 70.8356 192.237 70.4287C191.854 70.0137 191.272 69.8062 190.491 69.8062C189.816 69.8062 189.262 69.9771 188.831 70.3188C188.4 70.6525 188.184 71.0798 188.184 71.6006H185.218C185.218 70.8763 185.458 70.2008 185.938 69.5742C186.418 68.9395 187.069 68.443 187.891 68.085C188.721 67.7269 189.645 67.5479 190.662 67.5479C192.208 67.5479 193.441 67.9385 194.361 68.7197C195.28 69.4928 195.752 70.5833 195.777 71.9912V77.9482C195.777 79.1364 195.944 80.0845 196.277 80.7925V81H193.25ZM189.991 78.8638C190.577 78.8638 191.126 78.7214 191.639 78.4365C192.16 78.1517 192.55 77.7692 192.811 77.2891V74.7988H191.211C190.113 74.7988 189.287 74.9901 188.733 75.3726C188.18 75.755 187.903 76.2962 187.903 76.9961C187.903 77.5658 188.09 78.0215 188.465 78.3633C188.847 78.6969 189.356 78.8638 189.991 78.8638ZM202.601 64.5815V67.792H204.932V69.9893H202.601V77.3623C202.601 77.8669 202.698 78.2331 202.894 78.4609C203.097 78.6807 203.455 78.7905 203.968 78.7905C204.31 78.7905 204.655 78.7498 205.005 78.6685V80.9634C204.33 81.1506 203.679 81.2441 203.052 81.2441C200.774 81.2441 199.634 79.9868 199.634 77.4722V69.9893H197.461V67.792H199.634V64.5815H202.601ZM206.287 74.2739C206.287 72.98 206.543 71.8162 207.056 70.7827C207.569 69.741 208.289 68.9435 209.217 68.3901C210.145 67.8286 211.211 67.5479 212.415 67.5479C214.197 67.5479 215.642 68.1216 216.749 69.269C217.863 70.4165 218.466 71.9383 218.555 73.8345L218.567 74.5303C218.567 75.8324 218.315 76.9961 217.811 78.0215C217.314 79.0469 216.598 79.8403 215.662 80.4019C214.734 80.9634 213.66 81.2441 212.439 81.2441C210.576 81.2441 209.083 80.6257 207.959 79.3887C206.845 78.1436 206.287 76.4875 206.287 74.4204V74.2739ZM209.253 74.5303C209.253 75.8893 209.534 76.9554 210.096 77.7285C210.657 78.4935 211.438 78.876 212.439 78.876C213.44 78.876 214.218 78.4854 214.771 77.7041C215.333 76.9229 215.613 75.7795 215.613 74.2739C215.613 72.9393 215.324 71.8813 214.747 71.1001C214.177 70.3188 213.4 69.9282 212.415 69.9282C211.447 69.9282 210.678 70.3148 210.108 71.0879C209.538 71.8529 209.253 73.0003 209.253 74.5303ZM213.233 62.25H216.614L213.233 65.9487H210.853L213.233 62.25ZM227.991 70.502C227.601 70.4368 227.198 70.4043 226.783 70.4043C225.424 70.4043 224.508 70.9251 224.036 71.9668V81H221.07V67.792H223.902L223.975 69.269C224.691 68.1216 225.684 67.5479 226.954 67.5479C227.377 67.5479 227.727 67.6048 228.003 67.7188L227.991 70.502ZM233.021 81H230.054V67.792H233.021V81ZM229.871 64.3618C229.871 63.9061 230.014 63.5277 230.298 63.2266C230.591 62.9255 231.006 62.7749 231.543 62.7749C232.081 62.7749 232.496 62.9255 232.789 63.2266C233.082 63.5277 233.228 63.9061 233.228 64.3618C233.228 64.8094 233.082 65.1838 232.789 65.4849C232.496 65.7778 232.081 65.9243 231.543 65.9243C231.006 65.9243 230.591 65.7778 230.298 65.4849C230.014 65.1838 229.871 64.8094 229.871 64.3618ZM235.706 74.2739C235.706 72.98 235.962 71.8162 236.475 70.7827C236.988 69.741 237.708 68.9435 238.636 68.3901C239.563 67.8286 240.63 67.5479 241.834 67.5479C243.616 67.5479 245.061 68.1216 246.167 69.269C247.282 70.4165 247.885 71.9383 247.974 73.8345L247.986 74.5303C247.986 75.8324 247.734 76.9961 247.229 78.0215C246.733 79.0469 246.017 79.8403 245.081 80.4019C244.153 80.9634 243.079 81.2441 241.858 81.2441C239.995 81.2441 238.501 80.6257 237.378 79.3887C236.264 78.1436 235.706 76.4875 235.706 74.4204V74.2739ZM238.672 74.5303C238.672 75.8893 238.953 76.9554 239.515 77.7285C240.076 78.4935 240.857 78.876 241.858 78.876C242.859 78.876 243.637 78.4854 244.19 77.7041C244.751 76.9229 245.032 75.7795 245.032 74.2739C245.032 72.9393 244.743 71.8813 244.166 71.1001C243.596 70.3188 242.819 69.9282 241.834 69.9282C240.866 69.9282 240.097 70.3148 239.527 71.0879C238.957 71.8529 238.672 73.0003 238.672 74.5303Z" fill="#FF5A00"/>
<path d="M267.938 795.946C267.938 796.991 267.758 797.909 267.396 798.7C267.035 799.486 266.518 800.092 265.844 800.517C265.175 800.937 264.403 801.146 263.529 801.146C262.665 801.146 261.894 800.937 261.215 800.517C260.541 800.092 260.019 799.489 259.647 798.708C259.281 797.926 259.096 797.025 259.091 796.005V795.404C259.091 794.364 259.274 793.446 259.64 792.65C260.011 791.854 260.531 791.247 261.2 790.827C261.874 790.402 262.646 790.189 263.515 790.189C264.384 790.189 265.153 790.399 265.822 790.819C266.496 791.234 267.016 791.835 267.382 792.621C267.748 793.402 267.934 794.313 267.938 795.353V795.946ZM266.085 795.39C266.085 794.208 265.861 793.302 265.412 792.672C264.967 792.042 264.335 791.728 263.515 791.728C262.714 791.728 262.086 792.042 261.632 792.672C261.183 793.297 260.954 794.184 260.944 795.331V795.946C260.944 797.118 261.171 798.024 261.625 798.664C262.084 799.303 262.719 799.623 263.529 799.623C264.35 799.623 264.979 799.311 265.419 798.686C265.863 798.061 266.085 797.147 266.085 795.946V795.39ZM276.566 797.118C276.566 798.349 276.291 799.328 275.739 800.055C275.192 800.783 274.438 801.146 273.476 801.146C272.548 801.146 271.825 800.812 271.308 800.143L271.22 801H269.608V789.75H271.388V793.837C271.901 793.231 272.592 792.929 273.461 792.929C274.428 792.929 275.187 793.288 275.739 794.005C276.291 794.723 276.566 795.727 276.566 797.016V797.118ZM274.787 796.964C274.787 796.105 274.635 795.46 274.333 795.031C274.03 794.601 273.59 794.386 273.014 794.386C272.243 794.386 271.701 794.723 271.388 795.397V798.664C271.706 799.352 272.252 799.696 273.029 799.696C273.585 799.696 274.015 799.489 274.318 799.074C274.621 798.659 274.777 798.031 274.787 797.191V796.964ZM279.921 793.075V801.703C279.921 802.514 279.718 803.131 279.313 803.556C278.913 803.986 278.324 804.201 277.548 804.201C277.221 804.201 276.906 804.159 276.603 804.076V802.67C276.789 802.714 276.999 802.736 277.233 802.736C277.824 802.736 278.126 802.414 278.141 801.769V793.075H279.921ZM277.987 791.017C277.987 790.744 278.073 790.517 278.244 790.336C278.419 790.155 278.668 790.065 278.991 790.065C279.313 790.065 279.562 790.155 279.738 790.336C279.914 790.517 280.001 790.744 280.001 791.017C280.001 791.286 279.914 791.51 279.738 791.691C279.562 791.867 279.313 791.955 278.991 791.955C278.668 791.955 278.419 791.867 278.244 791.691C278.073 791.51 277.987 791.286 277.987 791.017ZM285.319 801.146C284.191 801.146 283.275 800.792 282.572 800.084C281.874 799.372 281.525 798.424 281.525 797.243V797.023C281.525 796.232 281.676 795.526 281.979 794.906C282.287 794.281 282.716 793.795 283.268 793.449C283.82 793.102 284.435 792.929 285.114 792.929C286.193 792.929 287.025 793.273 287.611 793.961C288.202 794.65 288.498 795.624 288.498 796.884V797.602H283.319C283.373 798.256 283.59 798.773 283.971 799.154C284.357 799.535 284.84 799.726 285.421 799.726C286.237 799.726 286.901 799.396 287.414 798.737L288.373 799.652C288.056 800.126 287.631 800.495 287.099 800.758C286.571 801.017 285.978 801.146 285.319 801.146ZM285.106 794.357C284.618 794.357 284.223 794.528 283.92 794.87C283.622 795.211 283.432 795.688 283.349 796.298H286.74V796.166C286.701 795.57 286.542 795.121 286.264 794.818C285.985 794.511 285.6 794.357 285.106 794.357ZM292.116 791.149V793.075H293.515V794.394H292.116V798.817C292.116 799.12 292.174 799.34 292.292 799.477C292.414 799.608 292.628 799.674 292.936 799.674C293.141 799.674 293.349 799.65 293.559 799.601V800.978C293.153 801.09 292.763 801.146 292.387 801.146C291.02 801.146 290.336 800.392 290.336 798.883V794.394H289.032V793.075H290.336V791.149H292.116ZM296.774 801H294.994V793.075H296.774V801ZM294.884 791.017C294.884 790.744 294.97 790.517 295.141 790.336C295.316 790.155 295.565 790.065 295.888 790.065C296.21 790.065 296.459 790.155 296.635 790.336C296.811 790.517 296.898 790.744 296.898 791.017C296.898 791.286 296.811 791.51 296.635 791.691C296.459 791.867 296.21 791.955 295.888 791.955C295.565 791.955 295.316 791.867 295.141 791.691C294.97 791.51 294.884 791.286 294.884 791.017ZM301.513 798.744L303.19 793.075H305.028L302.282 801H300.736L297.968 793.075H299.813L301.513 798.744ZM305.695 796.964C305.695 796.188 305.849 795.49 306.156 794.87C306.464 794.245 306.896 793.766 307.453 793.434C308.009 793.097 308.649 792.929 309.372 792.929C310.441 792.929 311.308 793.273 311.972 793.961C312.641 794.65 313.002 795.563 313.056 796.701L313.063 797.118C313.063 797.899 312.912 798.598 312.609 799.213C312.311 799.828 311.881 800.304 311.32 800.641C310.763 800.978 310.119 801.146 309.386 801.146C308.268 801.146 307.372 800.775 306.698 800.033C306.029 799.286 305.695 798.292 305.695 797.052V796.964ZM307.475 797.118C307.475 797.934 307.643 798.573 307.98 799.037C308.317 799.496 308.786 799.726 309.386 799.726C309.987 799.726 310.453 799.491 310.785 799.022C311.122 798.554 311.291 797.868 311.291 796.964C311.291 796.164 311.117 795.529 310.771 795.06C310.429 794.591 309.962 794.357 309.372 794.357C308.791 794.357 308.329 794.589 307.987 795.053C307.646 795.512 307.475 796.2 307.475 797.118Z" fill="#23256E"/>
<path d="M264.669 843.253C264.669 842.785 264.503 842.423 264.171 842.169C263.844 841.916 263.251 841.659 262.392 841.4C261.532 841.142 260.849 840.854 260.341 840.536C259.369 839.926 258.883 839.13 258.883 838.148C258.883 837.289 259.232 836.581 259.931 836.024C260.634 835.468 261.544 835.189 262.663 835.189C263.405 835.189 264.066 835.326 264.647 835.6C265.229 835.873 265.685 836.264 266.017 836.771C266.349 837.274 266.515 837.833 266.515 838.449H264.669C264.669 837.892 264.494 837.458 264.142 837.145C263.795 836.828 263.297 836.669 262.648 836.669C262.042 836.669 261.571 836.798 261.234 837.057C260.902 837.316 260.736 837.677 260.736 838.141C260.736 838.532 260.917 838.859 261.278 839.123C261.64 839.381 262.235 839.635 263.065 839.884C263.896 840.128 264.562 840.409 265.065 840.727C265.568 841.039 265.937 841.4 266.171 841.811C266.405 842.216 266.522 842.692 266.522 843.239C266.522 844.127 266.181 844.835 265.497 845.363C264.818 845.885 263.896 846.146 262.729 846.146C261.957 846.146 261.247 846.005 260.597 845.722C259.953 845.434 259.45 845.038 259.088 844.535C258.732 844.032 258.554 843.446 258.554 842.777H260.407C260.407 843.383 260.607 843.852 261.007 844.184C261.408 844.516 261.981 844.682 262.729 844.682C263.373 844.682 263.856 844.552 264.179 844.293C264.506 844.03 264.669 843.683 264.669 843.253ZM269.87 846H268.09V838.075H269.87V846ZM267.98 836.017C267.98 835.744 268.065 835.517 268.236 835.336C268.412 835.155 268.661 835.065 268.983 835.065C269.306 835.065 269.555 835.155 269.73 835.336C269.906 835.517 269.994 835.744 269.994 836.017C269.994 836.286 269.906 836.51 269.73 836.691C269.555 836.867 269.306 836.955 268.983 836.955C268.661 836.955 268.412 836.867 268.236 836.691C268.065 836.51 267.98 836.286 267.98 836.017ZM274.044 836.149V838.075H275.443V839.394H274.044V843.817C274.044 844.12 274.103 844.34 274.22 844.477C274.342 844.608 274.557 844.674 274.865 844.674C275.07 844.674 275.277 844.65 275.487 844.601V845.978C275.082 846.09 274.691 846.146 274.315 846.146C272.948 846.146 272.265 845.392 272.265 843.883V839.394H270.961V838.075H272.265V836.149H274.044ZM281.61 845.224C281.088 845.839 280.346 846.146 279.384 846.146C278.524 846.146 277.873 845.895 277.428 845.392C276.989 844.889 276.769 844.162 276.769 843.209V838.075H278.549V843.188C278.549 844.193 278.966 844.696 279.801 844.696C280.666 844.696 281.249 844.386 281.552 843.766V838.075H283.332V846H281.654L281.61 845.224ZM289.879 846C289.801 845.849 289.733 845.602 289.674 845.26C289.108 845.851 288.415 846.146 287.594 846.146C286.798 846.146 286.149 845.919 285.646 845.465C285.143 845.011 284.892 844.45 284.892 843.781C284.892 842.936 285.204 842.289 285.829 841.84C286.459 841.386 287.357 841.159 288.524 841.159H289.616V840.639C289.616 840.229 289.501 839.901 289.271 839.657C289.042 839.408 288.693 839.284 288.224 839.284C287.819 839.284 287.487 839.386 287.228 839.591C286.969 839.792 286.84 840.048 286.84 840.36H285.06C285.06 839.926 285.204 839.521 285.492 839.145C285.78 838.764 286.171 838.466 286.664 838.251C287.162 838.036 287.716 837.929 288.327 837.929C289.254 837.929 289.994 838.163 290.546 838.632C291.098 839.096 291.381 839.75 291.396 840.595V844.169C291.396 844.882 291.496 845.451 291.696 845.875V846H289.879ZM287.924 844.718C288.275 844.718 288.605 844.633 288.913 844.462C289.225 844.291 289.459 844.062 289.616 843.773V842.279H288.656C287.997 842.279 287.501 842.394 287.169 842.624C286.837 842.853 286.671 843.178 286.671 843.598C286.671 843.939 286.784 844.213 287.008 844.418C287.238 844.618 287.543 844.718 287.924 844.718ZM296.515 844.726C296.959 844.726 297.328 844.596 297.621 844.337C297.914 844.079 298.07 843.759 298.09 843.378H299.767C299.748 843.871 299.594 844.333 299.306 844.762C299.018 845.187 298.627 845.524 298.134 845.773C297.641 846.022 297.108 846.146 296.537 846.146C295.429 846.146 294.55 845.788 293.9 845.07C293.251 844.352 292.926 843.361 292.926 842.096V841.913C292.926 840.707 293.249 839.743 293.893 839.02C294.538 838.292 295.417 837.929 296.53 837.929C297.472 837.929 298.239 838.205 298.83 838.756C299.425 839.303 299.738 840.023 299.767 840.917H298.09C298.07 840.463 297.914 840.089 297.621 839.796C297.333 839.503 296.964 839.357 296.515 839.357C295.939 839.357 295.495 839.567 295.182 839.987C294.87 840.402 294.711 841.034 294.706 841.884V842.169C294.706 843.029 294.86 843.671 295.167 844.096C295.48 844.516 295.929 844.726 296.515 844.726ZM296.999 846.015L296.918 846.41C297.65 846.542 298.017 846.964 298.017 847.677C298.017 848.19 297.807 848.59 297.387 848.878C296.967 849.167 296.378 849.311 295.622 849.311L295.57 848.307C295.893 848.307 296.139 848.249 296.31 848.131C296.486 848.019 296.574 847.86 296.574 847.655C296.574 847.436 296.486 847.282 296.31 847.194C296.139 847.111 295.858 847.057 295.468 847.033L295.702 846.015H296.999ZM305.846 846C305.768 845.849 305.7 845.602 305.641 845.26C305.075 845.851 304.381 846.146 303.561 846.146C302.765 846.146 302.116 845.919 301.613 845.465C301.11 845.011 300.858 844.45 300.858 843.781C300.858 842.936 301.171 842.289 301.796 841.84C302.426 841.386 303.324 841.159 304.491 841.159H305.583V840.639C305.583 840.229 305.468 839.901 305.238 839.657C305.009 839.408 304.66 839.284 304.191 839.284C303.786 839.284 303.454 839.386 303.195 839.591C302.936 839.792 302.807 840.048 302.807 840.36H301.027C301.027 839.926 301.171 839.521 301.459 839.145C301.747 838.764 302.138 838.466 302.631 838.251C303.129 838.036 303.683 837.929 304.293 837.929C305.221 837.929 305.961 838.163 306.513 838.632C307.064 839.096 307.348 839.75 307.362 840.595V844.169C307.362 844.882 307.462 845.451 307.663 845.875V846H305.846ZM303.891 844.718C304.242 844.718 304.572 844.633 304.879 844.462C305.192 844.291 305.426 844.062 305.583 843.773V842.279H304.623C303.964 842.279 303.468 842.394 303.136 842.624C302.804 842.853 302.638 843.178 302.638 843.598C302.638 843.939 302.75 844.213 302.975 844.418C303.205 844.618 303.51 844.718 303.891 844.718ZM307.04 834.911C307.04 835.448 306.884 835.895 306.571 836.251C306.264 836.608 305.875 836.786 305.407 836.786C305.216 836.786 305.05 836.767 304.909 836.728C304.772 836.684 304.574 836.588 304.315 836.442C304.062 836.295 303.881 836.208 303.773 836.178C303.671 836.149 303.556 836.134 303.429 836.134C303.244 836.134 303.085 836.205 302.953 836.347C302.826 836.483 302.763 836.664 302.763 836.889L301.671 836.83C301.671 836.293 301.825 835.841 302.133 835.475C302.445 835.109 302.833 834.926 303.297 834.926C303.576 834.926 303.91 835.036 304.301 835.255C304.696 835.475 305.021 835.585 305.275 835.585C305.46 835.585 305.619 835.517 305.751 835.38C305.883 835.238 305.949 835.053 305.949 834.823L307.04 834.911ZM308.893 841.964C308.893 841.188 309.047 840.49 309.354 839.87C309.662 839.245 310.094 838.766 310.651 838.434C311.208 838.097 311.847 837.929 312.57 837.929C313.639 837.929 314.506 838.273 315.17 838.961C315.839 839.65 316.2 840.563 316.254 841.701L316.261 842.118C316.261 842.899 316.11 843.598 315.807 844.213C315.509 844.828 315.08 845.304 314.518 845.641C313.961 845.978 313.317 846.146 312.584 846.146C311.466 846.146 310.57 845.775 309.896 845.033C309.228 844.286 308.893 843.292 308.893 842.052V841.964ZM310.673 842.118C310.673 842.934 310.841 843.573 311.178 844.037C311.515 844.496 311.984 844.726 312.584 844.726C313.185 844.726 313.651 844.491 313.983 844.022C314.32 843.554 314.489 842.868 314.489 841.964C314.489 841.164 314.315 840.529 313.969 840.06C313.627 839.591 313.161 839.357 312.57 839.357C311.989 839.357 311.527 839.589 311.186 840.053C310.844 840.512 310.673 841.2 310.673 842.118ZM326.237 846C326.159 845.849 326.09 845.602 326.032 845.26C325.465 845.851 324.772 846.146 323.952 846.146C323.156 846.146 322.506 845.919 322.003 845.465C321.5 845.011 321.249 844.45 321.249 843.781C321.249 842.936 321.562 842.289 322.187 841.84C322.816 841.386 323.715 841.159 324.882 841.159H325.973V840.639C325.973 840.229 325.858 839.901 325.629 839.657C325.399 839.408 325.05 839.284 324.582 839.284C324.176 839.284 323.844 839.386 323.585 839.591C323.327 839.792 323.197 840.048 323.197 840.36H321.417C321.417 839.926 321.562 839.521 321.85 839.145C322.138 838.764 322.528 838.466 323.021 838.251C323.52 838.036 324.074 837.929 324.684 837.929C325.612 837.929 326.352 838.163 326.903 838.632C327.455 839.096 327.738 839.75 327.753 840.595V844.169C327.753 844.882 327.853 845.451 328.053 845.875V846H326.237ZM324.281 844.718C324.633 844.718 324.962 844.633 325.27 844.462C325.583 844.291 325.817 844.062 325.973 843.773V842.279H325.014C324.354 842.279 323.859 842.394 323.527 842.624C323.195 842.853 323.029 843.178 323.029 843.598C323.029 843.939 323.141 844.213 323.366 844.418C323.595 844.618 323.9 844.718 324.281 844.718ZM331.847 836.149V838.075H333.246V839.394H331.847V843.817C331.847 844.12 331.906 844.34 332.023 844.477C332.145 844.608 332.36 844.674 332.667 844.674C332.873 844.674 333.08 844.65 333.29 844.601V845.978C332.885 846.09 332.494 846.146 332.118 846.146C330.751 846.146 330.067 845.392 330.067 843.883V839.394H328.764V838.075H330.067V836.149H331.847ZM339.413 845.224C338.891 845.839 338.148 846.146 337.187 846.146C336.327 846.146 335.675 845.895 335.231 845.392C334.792 844.889 334.572 844.162 334.572 843.209V838.075H336.352V843.188C336.352 844.193 336.769 844.696 337.604 844.696C338.468 844.696 339.052 844.386 339.354 843.766V838.075H341.134V846H339.457L339.413 845.224ZM347.682 846C347.604 845.849 347.536 845.602 347.477 845.26C346.911 845.851 346.217 846.146 345.397 846.146C344.601 846.146 343.952 845.919 343.449 845.465C342.946 845.011 342.694 844.45 342.694 843.781C342.694 842.936 343.007 842.289 343.632 841.84C344.262 841.386 345.16 841.159 346.327 841.159H347.418V840.639C347.418 840.229 347.304 839.901 347.074 839.657C346.845 839.408 346.496 839.284 346.027 839.284C345.622 839.284 345.29 839.386 345.031 839.591C344.772 839.792 344.643 840.048 344.643 840.36H342.863C342.863 839.926 343.007 839.521 343.295 839.145C343.583 838.764 343.974 838.466 344.467 838.251C344.965 838.036 345.519 837.929 346.129 837.929C347.057 837.929 347.797 838.163 348.349 838.632C348.9 839.096 349.184 839.75 349.198 840.595V844.169C349.198 844.882 349.298 845.451 349.499 845.875V846H347.682ZM345.727 844.718C346.078 844.718 346.408 844.633 346.715 844.462C347.028 844.291 347.262 844.062 347.418 843.773V842.279H346.459C345.8 842.279 345.304 842.394 344.972 842.624C344.64 842.853 344.474 843.178 344.474 843.598C344.474 843.939 344.586 844.213 344.811 844.418C345.041 844.618 345.346 844.718 345.727 844.718ZM352.956 846H351.176V834.75H352.956V846Z" fill="#0C0C0C"/>
<path d="M71.102 431.438L71.9302 431.396C71.2865 430.832 70.9697 430.067 70.9798 429.101C70.9907 428.041 71.4035 427.32 72.218 426.938C71.4135 426.354 71.0167 425.539 71.0275 424.494C71.0365 423.62 71.2849 422.973 71.7727 422.553C72.2605 422.129 72.9757 421.916 73.9181 421.916L79.1253 421.97L79.1069 423.75L73.9509 423.697C73.448 423.691 73.0783 423.797 72.8416 424.015C72.605 424.232 72.484 424.594 72.4788 425.102C72.4746 425.508 72.581 425.841 72.798 426.102C73.0102 426.358 73.2916 426.539 73.6421 426.645L79.0764 426.694L79.058 428.474L73.8434 428.42C72.9106 428.435 72.4394 428.906 72.4298 429.833C72.4224 430.546 72.7077 431.055 73.2856 431.359L79.0275 431.418L79.009 433.198L71.0847 433.116L71.102 431.438ZM79.1639 418.25L79.1454 420.029L71.2211 419.947L71.2395 418.168L79.1639 418.25ZM69.1619 420.036C68.8885 420.033 68.6624 419.945 68.4835 419.773C68.3046 419.595 68.2169 419.345 68.2202 419.023C68.2236 418.7 68.3165 418.452 68.499 418.278C68.6814 418.105 68.9094 418.019 69.1828 418.022C69.4513 418.025 69.675 418.115 69.8539 418.292C70.0278 418.47 70.1131 418.72 70.1098 419.042C70.1064 419.364 70.016 419.613 69.8384 419.787C69.656 419.956 69.4305 420.039 69.1619 420.036ZM79.2036 414.412L79.1852 416.192L67.9358 416.075L67.9542 414.296L79.2036 414.412ZM72.1818 410.64C71.514 410.052 71.1847 409.314 71.1939 408.425C71.2114 406.736 72.1846 405.889 74.1135 405.885L79.2914 405.938L79.273 407.718L74.161 407.665C73.6141 407.659 73.2271 407.775 73.0001 408.012C72.7682 408.244 72.6498 408.589 72.6451 409.048C72.6377 409.761 72.9495 410.297 73.5806 410.655L79.242 410.714L79.2235 412.493L67.9741 412.377L67.9926 410.597L72.1818 410.64ZM79.3592 399.398C79.207 399.475 78.9597 399.541 78.6173 399.596C79.2023 400.168 79.4905 400.865 79.482 401.685C79.4737 402.481 79.24 403.128 78.7807 403.626C78.3214 404.124 77.7573 404.37 77.0884 404.363C76.2437 404.354 75.6 404.035 75.1573 403.405C74.7097 402.771 74.492 401.87 74.5041 400.703L74.5154 399.612L73.9954 399.606C73.5853 399.602 73.2569 399.713 73.0104 399.94C72.7591 400.167 72.6309 400.515 72.6261 400.984C72.6219 401.389 72.721 401.722 72.9234 401.983C73.1209 402.244 73.3759 402.376 73.6883 402.379L73.6699 404.159C73.2354 404.154 72.8316 404.006 72.4586 403.714C72.0808 403.422 71.787 403.028 71.5773 402.533C71.3676 402.033 71.2659 401.478 71.2722 400.867C71.2818 399.94 71.5239 399.202 71.9983 398.655C72.4679 398.109 73.1251 397.832 73.9699 397.826L77.5439 397.863C78.2568 397.871 78.8266 397.776 79.2535 397.581L79.378 397.582L79.3592 399.398ZM78.0572 401.34C78.0609 400.989 77.9789 400.658 77.8112 400.349C77.6435 400.035 77.4164 399.798 77.13 399.639L75.6359 399.623L75.626 400.583C75.6192 401.242 75.7288 401.739 75.9548 402.073C76.1809 402.407 76.5038 402.577 76.9237 402.581C77.2655 402.585 77.5401 402.475 77.7475 402.253C77.95 402.025 78.0533 401.721 78.0572 401.34ZM77.287 391.554C76.9696 391.551 76.7266 391.68 76.5578 391.942C76.3892 392.199 76.2382 392.63 76.105 393.234C75.9718 393.838 75.8054 394.342 75.6059 394.745C75.167 395.629 74.5399 396.067 73.7245 396.058C73.041 396.051 72.4727 395.757 72.0197 395.176C71.5667 394.596 71.3448 393.861 71.354 392.972C71.3638 392.025 71.6061 391.263 72.0809 390.687C72.5556 390.106 73.1666 389.819 73.9136 389.827L73.8952 391.607C73.5534 391.603 73.2689 391.727 73.0416 391.979C72.8095 392.23 72.6913 392.566 72.687 392.986C72.6829 393.377 72.7699 393.697 72.948 393.948C73.1261 394.194 73.3665 394.319 73.6693 394.322C73.9427 394.325 74.1563 394.212 74.31 393.984C74.4637 393.756 74.6223 393.294 74.7858 392.598C74.9444 391.901 75.1332 391.356 75.3521 390.963C75.5662 390.565 75.8231 390.272 76.123 390.084C76.4228 389.892 76.7851 389.798 77.2099 389.803C77.9228 389.81 78.4983 390.111 78.9365 390.707C79.3698 391.302 79.5815 392.078 79.5716 393.035C79.5649 393.685 79.4417 394.262 79.2021 394.767C78.9624 395.273 78.6361 395.665 78.223 395.944C77.8099 396.223 77.3666 396.36 76.893 396.355L76.9109 394.627C77.3311 394.606 77.6574 394.451 77.8899 394.161C78.1175 393.87 78.2339 393.483 78.2389 393C78.2437 392.531 78.1595 392.173 77.9863 391.928C77.8082 391.682 77.5751 391.557 77.287 391.554Z" fill="#FF5A00"/>
</svg>
