<svg width="1120" height="650" viewBox="0 0 1120 650" fill="none" xmlns="http://www.w3.org/2000/svg">
<rect x="0.5" y="0.5" width="1119" height="649" rx="9.5" stroke="#FF5A00"/>
<path d="M166.829 172L286.795 171" stroke="#5D3189" stroke-width="3"/>
<path d="M1049.48 579.707C1049.87 579.316 1049.87 578.683 1049.48 578.293L1043.11 571.929C1042.72 571.538 1042.09 571.538 1041.7 571.929C1041.31 572.319 1041.31 572.953 1041.7 573.343L1047.36 579L1041.7 584.657C1041.31 585.047 1041.31 585.68 1041.7 586.071C1042.09 586.462 1042.72 586.462 1043.11 586.071L1049.48 579.707ZM72.1675 580L1048.77 580L1048.77 578L72.1675 578L72.1675 580Z" fill="#7D7D7D"/>
<path d="M94.4312 110.293C94.0407 109.902 93.4076 109.902 93.017 110.293L86.6531 116.657C86.2625 117.047 86.2625 117.681 86.6531 118.071C87.0436 118.462 87.6768 118.462 88.0673 118.071L93.7241 112.414L99.381 118.071C99.7715 118.462 100.405 118.462 100.795 118.071C101.186 117.681 101.186 117.047 100.795 116.657L94.4312 110.293ZM94.7241 615L94.7241 111L92.7241 111L92.7241 615L94.7241 615Z" fill="#7C7C7C"/>
<path d="M906.31 207C895.134 234.282 885.853 262.229 867.509 286.886C851.955 307.793 832.638 326.833 814.914 346.459C803.313 359.307 793.943 375.694 772.035 366.626C761.382 362.217 752.138 357.45 740.169 357.538C713.797 357.73 695.139 364.778 672.412 375.556C653.029 384.747 632.638 392.848 614.464 403.756C595.92 414.886 580.149 428.787 560.48 438.731C548.963 444.554 524.138 462.409 509.52 456.254C489.728 447.919 463.841 449.04 443.79 458.504C422.726 468.446 403.549 485.256 385.245 498.453C372.96 507.311 354.783 518.82 338.462 521.072C326.258 522.756 318.003 515.727 308.38 510.852C281.967 497.469 250.631 499.329 221.198 503.751C179.164 510.066 132.201 520.017 93.7239 536" stroke="#5D3189" stroke-width="2" stroke-linecap="round" stroke-linejoin="round"/>
<path d="M559.571 611V600.336H562.721C563.663 600.336 564.498 600.546 565.226 600.966C565.958 601.386 566.524 601.981 566.925 602.753C567.325 603.524 567.525 604.408 567.525 605.404V605.939C567.525 606.95 567.323 607.838 566.917 608.605C566.517 609.372 565.943 609.962 565.196 610.377C564.454 610.792 563.602 611 562.64 611H559.571ZM561.424 601.83V609.521H562.633C563.604 609.521 564.349 609.218 564.867 608.612C565.389 608.002 565.655 607.128 565.665 605.99V605.397C565.665 604.24 565.414 603.356 564.911 602.746C564.408 602.135 563.678 601.83 562.721 601.83H561.424ZM573.934 611C573.856 610.849 573.788 610.602 573.729 610.26C573.163 610.851 572.469 611.146 571.649 611.146C570.853 611.146 570.204 610.919 569.701 610.465C569.198 610.011 568.946 609.45 568.946 608.781C568.946 607.936 569.259 607.289 569.884 606.84C570.514 606.386 571.412 606.159 572.579 606.159H573.67V605.639C573.67 605.229 573.556 604.901 573.326 604.657C573.097 604.408 572.748 604.284 572.279 604.284C571.874 604.284 571.542 604.386 571.283 604.591C571.024 604.792 570.895 605.048 570.895 605.36H569.115C569.115 604.926 569.259 604.521 569.547 604.145C569.835 603.764 570.226 603.466 570.719 603.251C571.217 603.036 571.771 602.929 572.381 602.929C573.309 602.929 574.049 603.163 574.601 603.632C575.152 604.096 575.436 604.75 575.45 605.595V609.169C575.45 609.882 575.55 610.451 575.75 610.875V611H573.934ZM571.979 609.718C572.33 609.718 572.66 609.633 572.967 609.462C573.28 609.291 573.514 609.062 573.67 608.773V607.279H572.711C572.052 607.279 571.556 607.394 571.224 607.624C570.892 607.853 570.726 608.178 570.726 608.598C570.726 608.939 570.838 609.213 571.063 609.418C571.292 609.618 571.598 609.718 571.979 609.718ZM579.544 601.149V603.075H580.943V604.394H579.544V608.817C579.544 609.12 579.603 609.34 579.72 609.477C579.842 609.608 580.057 609.674 580.365 609.674C580.57 609.674 580.777 609.65 580.987 609.601V610.978C580.582 611.09 580.191 611.146 579.815 611.146C578.448 611.146 577.765 610.392 577.765 608.883V604.394H576.461V603.075H577.765V601.149H579.544ZM587.044 611C586.966 610.849 586.898 610.602 586.839 610.26C586.273 610.851 585.58 611.146 584.759 611.146C583.963 611.146 583.314 610.919 582.811 610.465C582.308 610.011 582.057 609.45 582.057 608.781C582.057 607.936 582.369 607.289 582.994 606.84C583.624 606.386 584.522 606.159 585.689 606.159H586.781V605.639C586.781 605.229 586.666 604.901 586.437 604.657C586.207 604.408 585.858 604.284 585.389 604.284C584.984 604.284 584.652 604.386 584.393 604.591C584.134 604.792 584.005 605.048 584.005 605.36H582.225C582.225 604.926 582.369 604.521 582.657 604.145C582.945 603.764 583.336 603.466 583.829 603.251C584.327 603.036 584.881 602.929 585.492 602.929C586.419 602.929 587.159 603.163 587.711 603.632C588.263 604.096 588.546 604.75 588.561 605.595V609.169C588.561 609.882 588.661 610.451 588.861 610.875V611H587.044ZM585.089 609.718C585.44 609.718 585.77 609.633 586.078 609.462C586.39 609.291 586.625 609.062 586.781 608.773V607.279H585.821C585.162 607.279 584.667 607.394 584.334 607.624C584.002 607.853 583.836 608.178 583.836 608.598C583.836 608.939 583.949 609.213 584.173 609.418C584.403 609.618 584.708 609.718 585.089 609.718Z" fill="#FF5A00"/>
<path d="M82.895 60.396V67H79.8066V49.2266H86.606C88.5916 49.2266 90.1663 49.7433 91.3301 50.7769C92.502 51.8104 93.0879 53.1776 93.0879 54.8784C93.0879 56.62 92.5142 57.9749 91.3667 58.9434C90.2274 59.9118 88.6283 60.396 86.5693 60.396H82.895ZM82.895 57.918H86.606C87.7046 57.918 88.5428 57.6616 89.1206 57.1489C89.6984 56.6281 89.9873 55.8794 89.9873 54.9028C89.9873 53.9425 89.6943 53.1776 89.1084 52.6079C88.5225 52.0301 87.7168 51.7331 86.6914 51.7168H82.895V57.918ZM102.426 56.502C102.036 56.4368 101.633 56.4043 101.218 56.4043C99.8587 56.4043 98.9432 56.9251 98.4712 57.9668V67H95.5049V53.792H98.3369L98.4102 55.269C99.1263 54.1216 100.119 53.5479 101.389 53.5479C101.812 53.5479 102.162 53.6048 102.438 53.7188L102.426 56.502ZM109.873 67.2441C107.993 67.2441 106.467 66.6541 105.295 65.4741C104.131 64.286 103.549 62.7072 103.549 60.7378V60.3716C103.549 59.0532 103.802 57.8773 104.306 56.8438C104.819 55.8021 105.535 54.9924 106.455 54.4146C107.374 53.8368 108.4 53.5479 109.531 53.5479C111.329 53.5479 112.717 54.1216 113.693 55.269C114.678 56.4165 115.17 58.04 115.17 60.1396V61.3359H106.54C106.63 62.4264 106.992 63.2891 107.626 63.9238C108.269 64.5586 109.075 64.876 110.043 64.876C111.403 64.876 112.509 64.3267 113.364 63.228L114.963 64.7539C114.434 65.5433 113.726 66.1577 112.839 66.5972C111.96 67.0285 110.971 67.2441 109.873 67.2441ZM109.519 55.9282C108.705 55.9282 108.046 56.2131 107.541 56.7827C107.045 57.3524 106.727 58.1458 106.589 59.1631H112.241V58.9434C112.176 57.9505 111.911 57.2018 111.447 56.6973C110.983 56.1846 110.34 55.9282 109.519 55.9282ZM122.91 64.876C123.65 64.876 124.265 64.6603 124.753 64.229C125.241 63.7977 125.502 63.2646 125.534 62.6299H128.33C128.297 63.4518 128.041 64.2209 127.561 64.937C127.08 65.645 126.429 66.2065 125.607 66.6216C124.785 67.0366 123.898 67.2441 122.946 67.2441C121.099 67.2441 119.634 66.646 118.552 65.4497C117.469 64.2534 116.928 62.6014 116.928 60.4937V60.1885C116.928 58.1784 117.465 56.5711 118.54 55.3667C119.614 54.1541 121.079 53.5479 122.934 53.5479C124.505 53.5479 125.782 54.0076 126.767 54.9272C127.76 55.8387 128.281 57.0391 128.33 58.5283H125.534C125.502 57.7715 125.241 57.1489 124.753 56.6606C124.273 56.1724 123.658 55.9282 122.91 55.9282C121.949 55.9282 121.209 56.2782 120.688 56.978C120.167 57.6698 119.903 58.7236 119.895 60.1396V60.6157C119.895 62.048 120.151 63.1182 120.664 63.8262C121.184 64.526 121.933 64.876 122.91 64.876ZM123.715 67.0244L123.581 67.6836C124.802 67.9033 125.412 68.6073 125.412 69.7954C125.412 70.6499 125.062 71.3172 124.362 71.7974C123.662 72.2775 122.682 72.5176 121.42 72.5176L121.335 70.8452C121.872 70.8452 122.283 70.7476 122.568 70.5522C122.861 70.3651 123.007 70.1006 123.007 69.7588C123.007 69.3926 122.861 69.1362 122.568 68.9897C122.283 68.8514 121.815 68.7619 121.164 68.7212L121.555 67.0244H123.715ZM130.014 60.2739C130.014 58.98 130.271 57.8162 130.783 56.7827C131.296 55.741 132.016 54.9435 132.944 54.3901C133.872 53.8286 134.938 53.5479 136.142 53.5479C137.924 53.5479 139.369 54.1216 140.476 55.269C141.59 56.4165 142.193 57.9383 142.282 59.8345L142.294 60.5303C142.294 61.8324 142.042 62.9961 141.538 64.0215C141.041 65.0469 140.325 65.8403 139.389 66.4019C138.461 66.9634 137.387 67.2441 136.167 67.2441C134.303 67.2441 132.81 66.6257 131.687 65.3887C130.572 64.1436 130.014 62.4875 130.014 60.4204V60.2739ZM132.98 60.5303C132.98 61.8893 133.261 62.9554 133.823 63.7285C134.384 64.4935 135.166 64.876 136.167 64.876C137.167 64.876 137.945 64.4854 138.498 63.7041C139.06 62.9229 139.34 61.7795 139.34 60.2739C139.34 58.9393 139.051 57.8813 138.474 57.1001C137.904 56.3188 137.127 55.9282 136.142 55.9282C135.174 55.9282 134.405 56.3148 133.835 57.0879C133.265 57.8529 132.98 59.0003 132.98 60.5303ZM152.207 63.4111C152.207 62.8822 151.987 62.4793 151.547 62.2026C151.116 61.9259 150.396 61.6818 149.387 61.4702C148.378 61.2586 147.535 60.9901 146.86 60.6646C145.379 59.9484 144.638 58.9108 144.638 57.5518C144.638 56.4124 145.118 55.4603 146.079 54.6953C147.039 53.9303 148.26 53.5479 149.741 53.5479C151.319 53.5479 152.593 53.9385 153.562 54.7197C154.538 55.501 155.026 56.5142 155.026 57.7593H152.06C152.06 57.1896 151.848 56.7176 151.425 56.3433C151.002 55.9608 150.441 55.7695 149.741 55.7695C149.09 55.7695 148.557 55.9201 148.142 56.2212C147.735 56.5223 147.531 56.9251 147.531 57.4297C147.531 57.8854 147.722 58.2394 148.105 58.4917C148.487 58.744 149.261 59.0003 150.424 59.2607C151.588 59.513 152.5 59.8182 153.159 60.1763C153.826 60.5262 154.318 60.9494 154.636 61.4458C154.961 61.9422 155.124 62.5444 155.124 63.2524C155.124 64.4406 154.632 65.4049 153.647 66.1455C152.662 66.8779 151.372 67.2441 149.777 67.2441C148.695 67.2441 147.731 67.0488 146.884 66.6582C146.038 66.2676 145.379 65.7305 144.907 65.0469C144.435 64.3633 144.199 63.6268 144.199 62.8374H147.08C147.12 63.5373 147.385 64.0785 147.873 64.4609C148.361 64.8353 149.008 65.0225 149.814 65.0225C150.595 65.0225 151.189 64.876 151.596 64.583C152.003 64.2819 152.207 63.8913 152.207 63.4111ZM166.733 53.792L166.818 55.1714C167.746 54.089 169.016 53.5479 170.627 53.5479C172.393 53.5479 173.601 54.2233 174.252 55.5742C175.213 54.2233 176.564 53.5479 178.305 53.5479C179.762 53.5479 180.844 53.9507 181.552 54.7563C182.268 55.562 182.635 56.7502 182.651 58.3208V67H179.685V58.4062C179.685 57.568 179.501 56.9536 179.135 56.563C178.769 56.1724 178.163 55.9771 177.316 55.9771C176.641 55.9771 176.088 56.1602 175.656 56.5264C175.233 56.8844 174.936 57.3564 174.765 57.9424L174.777 67H171.811V58.3086C171.77 56.7542 170.977 55.9771 169.431 55.9771C168.243 55.9771 167.4 56.4613 166.904 57.4297V67H163.938V53.792H166.733ZM191.513 67.2441C189.633 67.2441 188.107 66.6541 186.936 65.4741C185.772 64.286 185.19 62.7072 185.19 60.7378V60.3716C185.19 59.0532 185.442 57.8773 185.947 56.8438C186.459 55.8021 187.176 54.9924 188.095 54.4146C189.015 53.8368 190.04 53.5479 191.171 53.5479C192.97 53.5479 194.357 54.1216 195.334 55.269C196.319 56.4165 196.811 58.04 196.811 60.1396V61.3359H188.181C188.27 62.4264 188.632 63.2891 189.267 63.9238C189.91 64.5586 190.716 64.876 191.684 64.876C193.043 64.876 194.15 64.3267 195.004 63.228L196.604 64.7539C196.075 65.5433 195.367 66.1577 194.479 66.5972C193.601 67.0285 192.612 67.2441 191.513 67.2441ZM191.159 55.9282C190.345 55.9282 189.686 56.2131 189.182 56.7827C188.685 57.3524 188.368 58.1458 188.229 59.1631H193.881V58.9434C193.816 57.9505 193.552 57.2018 193.088 56.6973C192.624 56.1846 191.981 55.9282 191.159 55.9282ZM191.831 48.25H195.212L191.831 51.9487H189.45L191.831 48.25ZM198.569 60.2983C198.569 58.2638 199.041 56.6322 199.985 55.4033C200.929 54.1663 202.194 53.5479 203.781 53.5479C205.181 53.5479 206.312 54.0361 207.175 55.0127V48.25H210.141V67H207.456L207.309 65.6328C206.422 66.707 205.238 67.2441 203.757 67.2441C202.211 67.2441 200.957 66.6216 199.997 65.3765C199.045 64.1313 198.569 62.4386 198.569 60.2983ZM201.535 60.5547C201.535 61.8975 201.792 62.9473 202.304 63.7041C202.825 64.4528 203.562 64.8271 204.514 64.8271C205.726 64.8271 206.613 64.286 207.175 63.2036V57.564C206.63 56.506 205.751 55.9771 204.538 55.9771C203.578 55.9771 202.837 56.3595 202.316 57.1245C201.796 57.8813 201.535 59.0247 201.535 60.5547ZM216.391 67H213.425V53.792H216.391V67ZM213.242 50.3618C213.242 49.9061 213.384 49.5277 213.669 49.2266C213.962 48.9255 214.377 48.7749 214.914 48.7749C215.451 48.7749 215.866 48.9255 216.159 49.2266C216.452 49.5277 216.599 49.9061 216.599 50.3618C216.599 50.8094 216.452 51.1838 216.159 51.4849C215.866 51.7778 215.451 51.9243 214.914 51.9243C214.377 51.9243 213.962 51.7778 213.669 51.4849C213.384 51.1838 213.242 50.8094 213.242 50.3618ZM219.077 60.2739C219.077 58.98 219.333 57.8162 219.846 56.7827C220.358 55.741 221.079 54.9435 222.006 54.3901C222.934 53.8286 224 53.5479 225.205 53.5479C226.987 53.5479 228.431 54.1216 229.538 55.269C230.653 56.4165 231.255 57.9383 231.345 59.8345L231.357 60.5303C231.357 61.8324 231.105 62.9961 230.6 64.0215C230.104 65.0469 229.388 65.8403 228.452 66.4019C227.524 66.9634 226.45 67.2441 225.229 67.2441C223.365 67.2441 221.872 66.6257 220.749 65.3887C219.634 64.1436 219.077 62.4875 219.077 60.4204V60.2739ZM222.043 60.5303C222.043 61.8893 222.324 62.9554 222.885 63.7285C223.447 64.4935 224.228 64.876 225.229 64.876C226.23 64.876 227.007 64.4854 227.561 63.7041C228.122 62.9229 228.403 61.7795 228.403 60.2739C228.403 58.9393 228.114 57.8813 227.536 57.1001C226.966 56.3188 226.189 55.9282 225.205 55.9282C224.236 55.9282 223.467 56.3148 222.897 57.0879C222.328 57.8529 222.043 59.0003 222.043 60.5303ZM241.269 63.4111C241.269 62.8822 241.049 62.4793 240.61 62.2026C240.179 61.9259 239.458 61.6818 238.449 61.4702C237.44 61.2586 236.598 60.9901 235.922 60.6646C234.441 59.9484 233.701 58.9108 233.701 57.5518C233.701 56.4124 234.181 55.4603 235.141 54.6953C236.101 53.9303 237.322 53.5479 238.803 53.5479C240.382 53.5479 241.656 53.9385 242.624 54.7197C243.601 55.501 244.089 56.5142 244.089 57.7593H241.123C241.123 57.1896 240.911 56.7176 240.488 56.3433C240.065 55.9608 239.503 55.7695 238.803 55.7695C238.152 55.7695 237.619 55.9201 237.204 56.2212C236.797 56.5223 236.594 56.9251 236.594 57.4297C236.594 57.8854 236.785 58.2394 237.167 58.4917C237.55 58.744 238.323 59.0003 239.487 59.2607C240.651 59.513 241.562 59.8182 242.221 60.1763C242.889 60.5262 243.381 60.9494 243.698 61.4458C244.024 61.9422 244.187 62.5444 244.187 63.2524C244.187 64.4406 243.694 65.4049 242.709 66.1455C241.725 66.8779 240.435 67.2441 238.84 67.2441C237.757 67.2441 236.793 67.0488 235.947 66.6582C235.1 66.2676 234.441 65.7305 233.969 65.0469C233.497 64.3633 233.261 63.6268 233.261 62.8374H236.142C236.183 63.5373 236.447 64.0785 236.936 64.4609C237.424 64.8353 238.071 65.0225 238.876 65.0225C239.658 65.0225 240.252 64.876 240.659 64.583C241.066 64.2819 241.269 63.8913 241.269 63.4111ZM252.451 60.2983C252.451 58.2638 252.923 56.6322 253.867 55.4033C254.811 54.1663 256.076 53.5479 257.663 53.5479C259.063 53.5479 260.194 54.0361 261.057 55.0127V48.25H264.023V67H261.337L261.191 65.6328C260.304 66.707 259.12 67.2441 257.639 67.2441C256.092 67.2441 254.839 66.6216 253.879 65.3765C252.927 64.1313 252.451 62.4386 252.451 60.2983ZM255.417 60.5547C255.417 61.8975 255.673 62.9473 256.186 63.7041C256.707 64.4528 257.443 64.8271 258.396 64.8271C259.608 64.8271 260.495 64.286 261.057 63.2036V57.564C260.511 56.506 259.632 55.9771 258.42 55.9771C257.46 55.9771 256.719 56.3595 256.198 57.1245C255.677 57.8813 255.417 59.0247 255.417 60.5547ZM272.934 67.2441C271.054 67.2441 269.528 66.6541 268.356 65.4741C267.193 64.286 266.611 62.7072 266.611 60.7378V60.3716C266.611 59.0532 266.863 57.8773 267.368 56.8438C267.88 55.8021 268.597 54.9924 269.516 54.4146C270.436 53.8368 271.461 53.5479 272.592 53.5479C274.391 53.5479 275.778 54.1216 276.755 55.269C277.74 56.4165 278.232 58.04 278.232 60.1396V61.3359H269.602C269.691 62.4264 270.053 63.2891 270.688 63.9238C271.331 64.5586 272.137 64.876 273.105 64.876C274.464 64.876 275.571 64.3267 276.425 63.228L278.024 64.7539C277.495 65.5433 276.787 66.1577 275.9 66.5972C275.021 67.0285 274.033 67.2441 272.934 67.2441ZM272.58 55.9282C271.766 55.9282 271.107 56.2131 270.603 56.7827C270.106 57.3524 269.789 58.1458 269.65 59.1631H275.302V58.9434C275.237 57.9505 274.973 57.2018 274.509 56.6973C274.045 56.1846 273.402 55.9282 272.58 55.9282ZM289.694 55.2324C290.663 54.1094 291.888 53.5479 293.369 53.5479C296.184 53.5479 297.613 55.1551 297.653 58.3696V67H294.687V58.4795C294.687 57.568 294.488 56.9251 294.089 56.5508C293.698 56.1683 293.12 55.9771 292.355 55.9771C291.167 55.9771 290.28 56.506 289.694 57.564V67H286.728V48.25H289.694V55.2324ZM300.107 60.2739C300.107 58.98 300.363 57.8162 300.876 56.7827C301.389 55.741 302.109 54.9435 303.037 54.3901C303.964 53.8286 305.03 53.5479 306.235 53.5479C308.017 53.5479 309.462 54.1216 310.568 55.269C311.683 56.4165 312.285 57.9383 312.375 59.8345L312.387 60.5303C312.387 61.8324 312.135 62.9961 311.63 64.0215C311.134 65.0469 310.418 65.8403 309.482 66.4019C308.554 66.9634 307.48 67.2441 306.259 67.2441C304.396 67.2441 302.902 66.6257 301.779 65.3887C300.664 64.1436 300.107 62.4875 300.107 60.4204V60.2739ZM303.073 60.5303C303.073 61.8893 303.354 62.9554 303.916 63.7285C304.477 64.4935 305.258 64.876 306.259 64.876C307.26 64.876 308.037 64.4854 308.591 63.7041C309.152 62.9229 309.433 61.7795 309.433 60.2739C309.433 58.9393 309.144 57.8813 308.566 57.1001C307.997 56.3188 307.22 55.9282 306.235 55.9282C305.266 55.9282 304.497 56.3148 303.928 57.0879C303.358 57.8529 303.073 59.0003 303.073 60.5303ZM322.299 63.4111C322.299 62.8822 322.08 62.4793 321.64 62.2026C321.209 61.9259 320.489 61.6818 319.479 61.4702C318.47 61.2586 317.628 60.9901 316.953 60.6646C315.472 59.9484 314.731 58.9108 314.731 57.5518C314.731 56.4124 315.211 55.4603 316.171 54.6953C317.132 53.9303 318.352 53.5479 319.833 53.5479C321.412 53.5479 322.686 53.9385 323.654 54.7197C324.631 55.501 325.119 56.5142 325.119 57.7593H322.153C322.153 57.1896 321.941 56.7176 321.518 56.3433C321.095 55.9608 320.533 55.7695 319.833 55.7695C319.182 55.7695 318.649 55.9201 318.234 56.2212C317.827 56.5223 317.624 56.9251 317.624 57.4297C317.624 57.8854 317.815 58.2394 318.198 58.4917C318.58 58.744 319.353 59.0003 320.517 59.2607C321.681 59.513 322.592 59.8182 323.251 60.1763C323.919 60.5262 324.411 60.9494 324.729 61.4458C325.054 61.9422 325.217 62.5444 325.217 63.2524C325.217 64.4406 324.724 65.4049 323.74 66.1455C322.755 66.8779 321.465 67.2441 319.87 67.2441C318.788 67.2441 317.823 67.0488 316.977 66.6582C316.131 66.2676 315.472 65.7305 315 65.0469C314.528 64.3633 314.292 63.6268 314.292 62.8374H317.172C317.213 63.5373 317.478 64.0785 317.966 64.4609C318.454 64.8353 319.101 65.0225 319.907 65.0225C320.688 65.0225 321.282 64.876 321.689 64.583C322.096 64.2819 322.299 63.8913 322.299 63.4111ZM339.377 60.5303C339.377 62.5729 338.913 64.2046 337.985 65.4253C337.058 66.6379 335.812 67.2441 334.25 67.2441C332.801 67.2441 331.642 66.7681 330.771 65.8159V72.0781H327.805V53.792H330.539L330.661 55.1348C331.532 54.0768 332.716 53.5479 334.213 53.5479C335.825 53.5479 337.086 54.1501 337.998 55.3545C338.917 56.5508 339.377 58.215 339.377 60.3472V60.5303ZM336.423 60.2739C336.423 58.9556 336.158 57.9098 335.629 57.1367C335.109 56.3636 334.36 55.9771 333.383 55.9771C332.171 55.9771 331.3 56.4775 330.771 57.4785V63.3379C331.308 64.3633 332.187 64.876 333.408 64.876C334.352 64.876 335.088 64.4976 335.617 63.7407C336.154 62.9757 336.423 61.8201 336.423 60.2739ZM347.714 67.2441C345.834 67.2441 344.309 66.6541 343.137 65.4741C341.973 64.286 341.391 62.7072 341.391 60.7378V60.3716C341.391 59.0532 341.643 57.8773 342.148 56.8438C342.661 55.8021 343.377 54.9924 344.296 54.4146C345.216 53.8368 346.241 53.5479 347.373 53.5479C349.171 53.5479 350.559 54.1216 351.535 55.269C352.52 56.4165 353.012 58.04 353.012 60.1396V61.3359H344.382C344.471 62.4264 344.833 63.2891 345.468 63.9238C346.111 64.5586 346.917 64.876 347.885 64.876C349.244 64.876 350.351 64.3267 351.206 63.228L352.805 64.7539C352.276 65.5433 351.568 66.1577 350.681 66.5972C349.802 67.0285 348.813 67.2441 347.714 67.2441ZM347.36 55.9282C346.547 55.9282 345.887 56.2131 345.383 56.7827C344.886 57.3524 344.569 58.1458 344.431 59.1631H350.083V58.9434C350.017 57.9505 349.753 57.2018 349.289 56.6973C348.825 56.1846 348.182 55.9282 347.36 55.9282ZM354.77 60.2983C354.77 58.2638 355.242 56.6322 356.186 55.4033C357.13 54.1663 358.396 53.5479 359.982 53.5479C361.382 53.5479 362.513 54.0361 363.376 55.0127V48.25H366.342V67H363.657L363.51 65.6328C362.623 66.707 361.439 67.2441 359.958 67.2441C358.412 67.2441 357.159 66.6216 356.198 65.3765C355.246 64.1313 354.77 62.4386 354.77 60.2983ZM357.736 60.5547C357.736 61.8975 357.993 62.9473 358.505 63.7041C359.026 64.4528 359.763 64.8271 360.715 64.8271C361.927 64.8271 362.814 64.286 363.376 63.2036V57.564C362.831 56.506 361.952 55.9771 360.739 55.9771C359.779 55.9771 359.038 56.3595 358.518 57.1245C357.997 57.8813 357.736 59.0247 357.736 60.5547ZM377.329 67C377.198 66.7477 377.084 66.3368 376.987 65.7671C376.043 66.7518 374.887 67.2441 373.52 67.2441C372.194 67.2441 371.111 66.8657 370.273 66.1089C369.435 65.3521 369.016 64.4162 369.016 63.3013C369.016 61.8934 369.536 60.8151 370.578 60.0664C371.628 59.3096 373.125 58.9312 375.07 58.9312H376.889V58.0645C376.889 57.3809 376.698 56.8356 376.315 56.4287C375.933 56.0137 375.351 55.8062 374.57 55.8062C373.894 55.8062 373.341 55.9771 372.91 56.3188C372.478 56.6525 372.263 57.0798 372.263 57.6006H369.296C369.296 56.8763 369.536 56.2008 370.017 55.5742C370.497 54.9395 371.148 54.443 371.97 54.085C372.8 53.7269 373.723 53.5479 374.741 53.5479C376.287 53.5479 377.52 53.9385 378.439 54.7197C379.359 55.4928 379.831 56.5833 379.855 57.9912V63.9482C379.855 65.1364 380.022 66.0845 380.356 66.7925V67H377.329ZM374.069 64.8638C374.655 64.8638 375.205 64.7214 375.717 64.4365C376.238 64.1517 376.629 63.7692 376.889 63.2891V60.7988H375.29C374.191 60.7988 373.365 60.9901 372.812 61.3726C372.259 61.755 371.982 62.2962 371.982 62.9961C371.982 63.5658 372.169 64.0215 372.543 64.3633C372.926 64.6969 373.435 64.8638 374.069 64.8638ZM382.443 60.2983C382.443 58.2476 382.924 56.6118 383.884 55.3911C384.852 54.1623 386.134 53.5479 387.729 53.5479C389.235 53.5479 390.419 54.0728 391.281 55.1226L391.416 53.792H394.089V66.5972C394.089 68.3306 393.548 69.6978 392.465 70.6987C391.391 71.6997 389.938 72.2002 388.107 72.2002C387.139 72.2002 386.191 71.9967 385.263 71.5898C384.344 71.1911 383.644 70.6662 383.164 70.0151L384.567 68.2329C385.479 69.3153 386.602 69.8564 387.937 69.8564C388.921 69.8564 389.698 69.5879 390.268 69.0508C390.838 68.5218 391.123 67.7406 391.123 66.707V65.8159C390.268 66.7681 389.129 67.2441 387.705 67.2441C386.158 67.2441 384.893 66.6297 383.908 65.4009C382.932 64.172 382.443 62.4712 382.443 60.2983ZM385.397 60.5547C385.397 61.8812 385.666 62.9269 386.203 63.6919C386.748 64.4487 387.501 64.8271 388.461 64.8271C389.658 64.8271 390.545 64.3145 391.123 63.2891V57.4785C390.561 56.4775 389.682 55.9771 388.486 55.9771C387.509 55.9771 386.748 56.3636 386.203 57.1367C385.666 57.9098 385.397 59.0492 385.397 60.5547ZM402.963 67.2441C401.083 67.2441 399.558 66.6541 398.386 65.4741C397.222 64.286 396.64 62.7072 396.64 60.7378V60.3716C396.64 59.0532 396.892 57.8773 397.397 56.8438C397.91 55.8021 398.626 54.9924 399.545 54.4146C400.465 53.8368 401.49 53.5479 402.622 53.5479C404.42 53.5479 405.808 54.1216 406.784 55.269C407.769 56.4165 408.261 58.04 408.261 60.1396V61.3359H399.631C399.72 62.4264 400.083 63.2891 400.717 63.9238C401.36 64.5586 402.166 64.876 403.134 64.876C404.493 64.876 405.6 64.3267 406.455 63.228L408.054 64.7539C407.525 65.5433 406.817 66.1577 405.93 66.5972C405.051 67.0285 404.062 67.2441 402.963 67.2441ZM402.609 55.9282C401.796 55.9282 401.136 56.2131 400.632 56.7827C400.135 57.3524 399.818 58.1458 399.68 59.1631H405.332V58.9434C405.266 57.9505 405.002 57.2018 404.538 56.6973C404.074 56.1846 403.431 55.9282 402.609 55.9282ZM413.364 53.792L413.449 55.1714C414.377 54.089 415.646 53.5479 417.258 53.5479C419.024 53.5479 420.232 54.2233 420.883 55.5742C421.844 54.2233 423.194 53.5479 424.936 53.5479C426.393 53.5479 427.475 53.9507 428.183 54.7563C428.899 55.562 429.265 56.7502 429.282 58.3208V67H426.315V58.4062C426.315 57.568 426.132 56.9536 425.766 56.563C425.4 56.1724 424.794 55.9771 423.947 55.9771C423.272 55.9771 422.718 56.1602 422.287 56.5264C421.864 56.8844 421.567 57.3564 421.396 57.9424L421.408 67H418.442V58.3086C418.401 56.7542 417.608 55.9771 416.062 55.9771C414.873 55.9771 414.031 56.4613 413.535 57.4297V67H410.568V53.792H413.364Z" fill="#FF5A00"/>
<path d="M328.701 173.253C328.701 172.785 328.535 172.423 328.203 172.169C327.876 171.916 327.282 171.659 326.423 171.4C325.564 171.142 324.88 170.854 324.372 170.536C323.401 169.926 322.915 169.13 322.915 168.148C322.915 167.289 323.264 166.581 323.962 166.024C324.665 165.468 325.576 165.189 326.694 165.189C327.436 165.189 328.098 165.326 328.679 165.6C329.26 165.873 329.716 166.264 330.048 166.771C330.381 167.274 330.547 167.833 330.547 168.449H328.701C328.701 167.892 328.525 167.458 328.173 167.145C327.827 166.828 327.329 166.669 326.679 166.669C326.074 166.669 325.603 166.798 325.266 167.057C324.934 167.316 324.768 167.677 324.768 168.141C324.768 168.532 324.948 168.859 325.31 169.123C325.671 169.381 326.267 169.635 327.097 169.884C327.927 170.128 328.593 170.409 329.096 170.727C329.599 171.039 329.968 171.4 330.202 171.811C330.437 172.216 330.554 172.692 330.554 173.239C330.554 174.127 330.212 174.835 329.528 175.363C328.85 175.885 327.927 176.146 326.76 176.146C325.988 176.146 325.278 176.005 324.629 175.722C323.984 175.434 323.481 175.038 323.12 174.535C322.763 174.032 322.585 173.446 322.585 172.777H324.438C324.438 173.383 324.638 173.852 325.039 174.184C325.439 174.516 326.013 174.682 326.76 174.682C327.404 174.682 327.888 174.552 328.21 174.293C328.537 174.03 328.701 173.683 328.701 173.253ZM333.901 176H332.121V168.075H333.901V176ZM332.011 166.017C332.011 165.744 332.097 165.517 332.268 165.336C332.444 165.155 332.693 165.065 333.015 165.065C333.337 165.065 333.586 165.155 333.762 165.336C333.938 165.517 334.026 165.744 334.026 166.017C334.026 166.286 333.938 166.51 333.762 166.691C333.586 166.867 333.337 166.955 333.015 166.955C332.693 166.955 332.444 166.867 332.268 166.691C332.097 166.51 332.011 166.286 332.011 166.017ZM338.076 166.149V168.075H339.475V169.394H338.076V173.817C338.076 174.12 338.134 174.34 338.252 174.477C338.374 174.608 338.589 174.674 338.896 174.674C339.101 174.674 339.309 174.65 339.519 174.601V175.978C339.113 176.09 338.723 176.146 338.347 176.146C336.98 176.146 336.296 175.392 336.296 173.883V169.394H334.992V168.075H336.296V166.149H338.076ZM345.642 175.224C345.119 175.839 344.377 176.146 343.415 176.146C342.556 176.146 341.904 175.895 341.46 175.392C341.02 174.889 340.8 174.162 340.8 173.209V168.075H342.58V173.188C342.58 174.193 342.998 174.696 343.833 174.696C344.697 174.696 345.28 174.386 345.583 173.766V168.075H347.363V176H345.686L345.642 175.224ZM353.911 176C353.833 175.849 353.764 175.602 353.706 175.26C353.139 175.851 352.446 176.146 351.626 176.146C350.83 176.146 350.18 175.919 349.677 175.465C349.174 175.011 348.923 174.45 348.923 173.781C348.923 172.936 349.235 172.289 349.86 171.84C350.49 171.386 351.389 171.159 352.556 171.159H353.647V170.639C353.647 170.229 353.532 169.901 353.303 169.657C353.073 169.408 352.724 169.284 352.256 169.284C351.85 169.284 351.518 169.386 351.259 169.591C351.001 169.792 350.871 170.048 350.871 170.36H349.091C349.091 169.926 349.235 169.521 349.524 169.145C349.812 168.764 350.202 168.466 350.695 168.251C351.194 168.036 351.748 167.929 352.358 167.929C353.286 167.929 354.026 168.163 354.577 168.632C355.129 169.096 355.412 169.75 355.427 170.595V174.169C355.427 174.882 355.527 175.451 355.727 175.875V176H353.911ZM351.955 174.718C352.307 174.718 352.636 174.633 352.944 174.462C353.256 174.291 353.491 174.062 353.647 173.773V172.279H352.688C352.028 172.279 351.533 172.394 351.201 172.624C350.869 172.853 350.703 173.178 350.703 173.598C350.703 173.939 350.815 174.213 351.04 174.418C351.269 174.618 351.574 174.718 351.955 174.718ZM360.547 174.726C360.991 174.726 361.36 174.596 361.652 174.337C361.945 174.079 362.102 173.759 362.121 173.378H363.798C363.779 173.871 363.625 174.333 363.337 174.762C363.049 175.187 362.658 175.524 362.165 175.773C361.672 176.022 361.14 176.146 360.569 176.146C359.46 176.146 358.581 175.788 357.932 175.07C357.282 174.352 356.958 173.361 356.958 172.096V171.913C356.958 170.707 357.28 169.743 357.924 169.02C358.569 168.292 359.448 167.929 360.561 167.929C361.504 167.929 362.27 168.205 362.861 168.756C363.457 169.303 363.769 170.023 363.798 170.917H362.121C362.102 170.463 361.945 170.089 361.652 169.796C361.364 169.503 360.996 169.357 360.547 169.357C359.97 169.357 359.526 169.567 359.214 169.987C358.901 170.402 358.742 171.034 358.737 171.884V172.169C358.737 173.029 358.891 173.671 359.199 174.096C359.511 174.516 359.961 174.726 360.547 174.726ZM361.03 176.015L360.949 176.41C361.682 176.542 362.048 176.964 362.048 177.677C362.048 178.19 361.838 178.59 361.418 178.878C360.998 179.167 360.41 179.311 359.653 179.311L359.602 178.307C359.924 178.307 360.171 178.249 360.341 178.131C360.517 178.019 360.605 177.86 360.605 177.655C360.605 177.436 360.517 177.282 360.341 177.194C360.171 177.111 359.89 177.057 359.499 177.033L359.734 176.015H361.03ZM369.878 176C369.799 175.849 369.731 175.602 369.673 175.26C369.106 175.851 368.413 176.146 367.592 176.146C366.797 176.146 366.147 175.919 365.644 175.465C365.141 175.011 364.89 174.45 364.89 173.781C364.89 172.936 365.202 172.289 365.827 171.84C366.457 171.386 367.356 171.159 368.523 171.159H369.614V170.639C369.614 170.229 369.499 169.901 369.27 169.657C369.04 169.408 368.691 169.284 368.222 169.284C367.817 169.284 367.485 169.386 367.226 169.591C366.967 169.792 366.838 170.048 366.838 170.36H365.058C365.058 169.926 365.202 169.521 365.49 169.145C365.778 168.764 366.169 168.466 366.662 168.251C367.16 168.036 367.714 167.929 368.325 167.929C369.253 167.929 369.992 168.163 370.544 168.632C371.096 169.096 371.379 169.75 371.394 170.595V174.169C371.394 174.882 371.494 175.451 371.694 175.875V176H369.878ZM367.922 174.718C368.274 174.718 368.603 174.633 368.911 174.462C369.223 174.291 369.458 174.062 369.614 173.773V172.279H368.654C367.995 172.279 367.5 172.394 367.168 172.624C366.836 172.853 366.67 173.178 366.67 173.598C366.67 173.939 366.782 174.213 367.006 174.418C367.236 174.618 367.541 174.718 367.922 174.718ZM371.071 164.911C371.071 165.448 370.915 165.895 370.603 166.251C370.295 166.608 369.907 166.786 369.438 166.786C369.248 166.786 369.082 166.767 368.94 166.728C368.803 166.684 368.606 166.588 368.347 166.442C368.093 166.295 367.912 166.208 367.805 166.178C367.702 166.149 367.588 166.134 367.461 166.134C367.275 166.134 367.116 166.205 366.985 166.347C366.858 166.483 366.794 166.664 366.794 166.889L365.703 166.83C365.703 166.293 365.857 165.841 366.164 165.475C366.477 165.109 366.865 164.926 367.329 164.926C367.607 164.926 367.942 165.036 368.332 165.255C368.728 165.475 369.052 165.585 369.306 165.585C369.492 165.585 369.651 165.517 369.782 165.38C369.914 165.238 369.98 165.053 369.98 164.823L371.071 164.911ZM372.924 171.964C372.924 171.188 373.078 170.49 373.386 169.87C373.693 169.245 374.126 168.766 374.682 168.434C375.239 168.097 375.879 167.929 376.601 167.929C377.671 167.929 378.537 168.273 379.201 168.961C379.87 169.65 380.232 170.563 380.285 171.701L380.293 172.118C380.293 172.899 380.141 173.598 379.839 174.213C379.541 174.828 379.111 175.304 378.549 175.641C377.993 175.978 377.348 176.146 376.616 176.146C375.498 176.146 374.602 175.775 373.928 175.033C373.259 174.286 372.924 173.292 372.924 172.052V171.964ZM374.704 172.118C374.704 172.934 374.873 173.573 375.21 174.037C375.547 174.496 376.015 174.726 376.616 174.726C377.216 174.726 377.683 174.491 378.015 174.022C378.352 173.554 378.52 172.868 378.52 171.964C378.52 171.164 378.347 170.529 378 170.06C377.658 169.591 377.192 169.357 376.601 169.357C376.02 169.357 375.559 169.589 375.217 170.053C374.875 170.512 374.704 171.2 374.704 172.118ZM340.412 194C340.334 193.849 340.266 193.602 340.207 193.26C339.641 193.851 338.947 194.146 338.127 194.146C337.331 194.146 336.682 193.919 336.179 193.465C335.676 193.011 335.424 192.45 335.424 191.781C335.424 190.936 335.737 190.289 336.362 189.84C336.992 189.386 337.89 189.159 339.057 189.159H340.149V188.639C340.149 188.229 340.034 187.901 339.804 187.657C339.575 187.408 339.226 187.284 338.757 187.284C338.352 187.284 338.02 187.386 337.761 187.591C337.502 187.792 337.373 188.048 337.373 188.36H335.593C335.593 187.926 335.737 187.521 336.025 187.145C336.313 186.764 336.704 186.466 337.197 186.251C337.695 186.036 338.249 185.929 338.86 185.929C339.787 185.929 340.527 186.163 341.079 186.632C341.631 187.096 341.914 187.75 341.928 188.595V192.169C341.928 192.882 342.028 193.451 342.229 193.875V194H340.412ZM338.457 192.718C338.808 192.718 339.138 192.633 339.445 192.462C339.758 192.291 339.992 192.062 340.149 191.773V190.279H339.189C338.53 190.279 338.034 190.394 337.702 190.624C337.37 190.853 337.204 191.178 337.204 191.598C337.204 191.939 337.317 192.213 337.541 192.418C337.771 192.618 338.076 192.718 338.457 192.718ZM346.023 184.149V186.075H347.422V187.394H346.023V191.817C346.023 192.12 346.081 192.34 346.198 192.477C346.32 192.608 346.535 192.674 346.843 192.674C347.048 192.674 347.256 192.65 347.465 192.601V193.978C347.06 194.09 346.67 194.146 346.294 194.146C344.926 194.146 344.243 193.392 344.243 191.883V187.394H342.939V186.075H344.243V184.149H346.023ZM353.589 193.224C353.066 193.839 352.324 194.146 351.362 194.146C350.503 194.146 349.851 193.895 349.406 193.392C348.967 192.889 348.747 192.162 348.747 191.209V186.075H350.527V191.188C350.527 192.193 350.944 192.696 351.779 192.696C352.644 192.696 353.227 192.386 353.53 191.766V186.075H355.31V194H353.632L353.589 193.224ZM361.858 194C361.779 193.849 361.711 193.602 361.652 193.26C361.086 193.851 360.393 194.146 359.572 194.146C358.777 194.146 358.127 193.919 357.624 193.465C357.121 193.011 356.87 192.45 356.87 191.781C356.87 190.936 357.182 190.289 357.807 189.84C358.437 189.386 359.336 189.159 360.503 189.159H361.594V188.639C361.594 188.229 361.479 187.901 361.25 187.657C361.02 187.408 360.671 187.284 360.202 187.284C359.797 187.284 359.465 187.386 359.206 187.591C358.947 187.792 358.818 188.048 358.818 188.36H357.038C357.038 187.926 357.182 187.521 357.47 187.145C357.758 186.764 358.149 186.466 358.642 186.251C359.14 186.036 359.694 185.929 360.305 185.929C361.233 185.929 361.972 186.163 362.524 186.632C363.076 187.096 363.359 187.75 363.374 188.595V192.169C363.374 192.882 363.474 193.451 363.674 193.875V194H361.858ZM359.902 192.718C360.254 192.718 360.583 192.633 360.891 192.462C361.203 192.291 361.438 192.062 361.594 191.773V190.279H360.634C359.975 190.279 359.48 190.394 359.148 190.624C358.816 190.853 358.65 191.178 358.65 191.598C358.65 191.939 358.762 192.213 358.986 192.418C359.216 192.618 359.521 192.718 359.902 192.718ZM367.131 194H365.351V182.75H367.131V194Z" fill="#0C0C0C"/>
<path d="M800.558 177V166.336H803.708C804.65 166.336 805.485 166.546 806.212 166.966C806.945 167.386 807.511 167.981 807.912 168.753C808.312 169.524 808.512 170.408 808.512 171.404V171.939C808.512 172.95 808.31 173.838 807.904 174.605C807.504 175.372 806.93 175.962 806.183 176.377C805.441 176.792 804.589 177 803.627 177H800.558ZM802.411 167.83V175.521H803.62C804.591 175.521 805.336 175.218 805.854 174.612C806.376 174.002 806.642 173.128 806.652 171.99V171.397C806.652 170.24 806.4 169.356 805.897 168.746C805.395 168.135 804.665 167.83 803.708 167.83H802.411ZM812.079 177H810.299V169.075H812.079V177ZM810.189 167.017C810.189 166.744 810.275 166.517 810.446 166.336C810.622 166.155 810.871 166.065 811.193 166.065C811.515 166.065 811.764 166.155 811.94 166.336C812.116 166.517 812.204 166.744 812.204 167.017C812.204 167.286 812.116 167.51 811.94 167.691C811.764 167.867 811.515 167.955 811.193 167.955C810.871 167.955 810.622 167.867 810.446 167.691C810.275 167.51 810.189 167.286 810.189 167.017ZM818.759 177C818.681 176.849 818.612 176.602 818.554 176.26C817.987 176.851 817.294 177.146 816.474 177.146C815.678 177.146 815.028 176.919 814.525 176.465C814.022 176.011 813.771 175.45 813.771 174.781C813.771 173.936 814.083 173.289 814.708 172.84C815.338 172.386 816.237 172.159 817.404 172.159H818.495V171.639C818.495 171.229 818.38 170.901 818.151 170.657C817.921 170.408 817.572 170.284 817.104 170.284C816.698 170.284 816.366 170.386 816.107 170.591C815.849 170.792 815.719 171.048 815.719 171.36H813.939C813.939 170.926 814.083 170.521 814.372 170.145C814.66 169.764 815.05 169.466 815.543 169.251C816.042 169.036 816.596 168.929 817.206 168.929C818.134 168.929 818.874 169.163 819.425 169.632C819.977 170.096 820.26 170.75 820.275 171.595V175.169C820.275 175.882 820.375 176.451 820.575 176.875V177H818.759ZM816.803 175.718C817.155 175.718 817.484 175.633 817.792 175.462C818.104 175.291 818.339 175.062 818.495 174.773V173.279H817.536C816.876 173.279 816.381 173.394 816.049 173.624C815.717 173.853 815.551 174.178 815.551 174.598C815.551 174.939 815.663 175.213 815.888 175.418C816.117 175.618 816.422 175.718 816.803 175.718ZM825.541 172.979C825.541 171.758 825.824 170.779 826.391 170.042C826.957 169.3 827.716 168.929 828.668 168.929C829.508 168.929 830.187 169.222 830.705 169.808V165.75H832.484V177H830.873L830.785 176.18C830.253 176.824 829.542 177.146 828.654 177.146C827.726 177.146 826.974 176.773 826.398 176.026C825.827 175.279 825.541 174.263 825.541 172.979ZM827.321 173.133C827.321 173.938 827.475 174.568 827.782 175.022C828.095 175.472 828.537 175.696 829.108 175.696C829.835 175.696 830.368 175.372 830.705 174.722V171.338C830.377 170.704 829.85 170.386 829.123 170.386C828.546 170.386 828.102 170.616 827.79 171.075C827.477 171.529 827.321 172.215 827.321 173.133ZM839.076 177C838.998 176.849 838.93 176.602 838.871 176.26C838.305 176.851 837.611 177.146 836.791 177.146C835.995 177.146 835.346 176.919 834.843 176.465C834.34 176.011 834.088 175.45 834.088 174.781C834.088 173.936 834.401 173.289 835.026 172.84C835.656 172.386 836.554 172.159 837.721 172.159H838.812V171.639C838.812 171.229 838.698 170.901 838.468 170.657C838.239 170.408 837.89 170.284 837.421 170.284C837.016 170.284 836.684 170.386 836.425 170.591C836.166 170.792 836.037 171.048 836.037 171.36H834.257C834.257 170.926 834.401 170.521 834.689 170.145C834.977 169.764 835.368 169.466 835.861 169.251C836.359 169.036 836.913 168.929 837.523 168.929C838.451 168.929 839.191 169.163 839.743 169.632C840.294 170.096 840.578 170.75 840.592 171.595V175.169C840.592 175.882 840.692 176.451 840.893 176.875V177H839.076ZM837.121 175.718C837.472 175.718 837.802 175.633 838.109 175.462C838.422 175.291 838.656 175.062 838.812 174.773V173.279H837.853C837.194 173.279 836.698 173.394 836.366 173.624C836.034 173.853 835.868 174.178 835.868 174.598C835.868 174.939 835.98 175.213 836.205 175.418C836.435 175.618 836.74 175.718 837.121 175.718ZM850.634 174.847C850.634 174.529 850.502 174.288 850.238 174.122C849.979 173.956 849.547 173.809 848.942 173.682C848.336 173.555 847.831 173.394 847.426 173.199C846.537 172.769 846.093 172.146 846.093 171.331C846.093 170.647 846.381 170.076 846.957 169.617C847.533 169.158 848.266 168.929 849.154 168.929C850.102 168.929 850.866 169.163 851.447 169.632C852.033 170.101 852.326 170.708 852.326 171.456H850.546C850.546 171.114 850.419 170.831 850.165 170.606C849.911 170.376 849.574 170.262 849.154 170.262C848.764 170.262 848.444 170.352 848.195 170.533C847.951 170.713 847.829 170.955 847.829 171.258C847.829 171.531 847.943 171.744 848.173 171.895C848.402 172.046 848.866 172.2 849.564 172.356C850.263 172.508 850.81 172.691 851.205 172.906C851.605 173.116 851.901 173.37 852.091 173.667C852.287 173.965 852.384 174.327 852.384 174.751C852.384 175.464 852.089 176.043 851.498 176.487C850.907 176.927 850.133 177.146 849.176 177.146C848.527 177.146 847.948 177.029 847.44 176.795C846.933 176.561 846.537 176.238 846.254 175.828C845.971 175.418 845.829 174.976 845.829 174.502H847.558C847.582 174.922 847.741 175.247 848.034 175.477C848.327 175.701 848.715 175.813 849.198 175.813C849.667 175.813 850.023 175.726 850.268 175.55C850.512 175.369 850.634 175.135 850.634 174.847ZM858.742 176.224C858.219 176.839 857.477 177.146 856.515 177.146C855.656 177.146 855.004 176.895 854.56 176.392C854.12 175.889 853.9 175.162 853.9 174.209V169.075H855.68V174.188C855.68 175.193 856.098 175.696 856.933 175.696C857.797 175.696 858.38 175.386 858.683 174.766V169.075H860.463V177H858.786L858.742 176.224ZM867.011 177C866.933 176.849 866.864 176.602 866.806 176.26C866.239 176.851 865.546 177.146 864.726 177.146C863.93 177.146 863.28 176.919 862.777 176.465C862.274 176.011 862.023 175.45 862.023 174.781C862.023 173.936 862.335 173.289 862.96 172.84C863.59 172.386 864.489 172.159 865.656 172.159H866.747V171.639C866.747 171.229 866.632 170.901 866.403 170.657C866.173 170.408 865.824 170.284 865.355 170.284C864.95 170.284 864.618 170.386 864.359 170.591C864.101 170.792 863.971 171.048 863.971 171.36H862.191C862.191 170.926 862.335 170.521 862.624 170.145C862.912 169.764 863.302 169.466 863.795 169.251C864.293 169.036 864.848 168.929 865.458 168.929C866.386 168.929 867.125 169.163 867.677 169.632C868.229 170.096 868.512 170.75 868.527 171.595V175.169C868.527 175.882 868.627 176.451 868.827 176.875V177H867.011ZM865.055 175.718C865.407 175.718 865.736 175.633 866.044 175.462C866.356 175.291 866.591 175.062 866.747 174.773V173.279H865.788C865.128 173.279 864.633 173.394 864.301 173.624C863.969 173.853 863.803 174.178 863.803 174.598C863.803 174.939 863.915 175.213 864.14 175.418C864.369 175.618 864.674 175.718 865.055 175.718ZM881.066 173.118C881.066 174.344 880.788 175.323 880.231 176.055C879.674 176.783 878.927 177.146 877.99 177.146C877.121 177.146 876.425 176.861 875.902 176.29V180.047H874.123V169.075H875.763L875.836 169.881C876.359 169.246 877.069 168.929 877.968 168.929C878.935 168.929 879.691 169.29 880.238 170.013C880.79 170.73 881.066 171.729 881.066 173.008V173.118ZM879.293 172.964C879.293 172.173 879.135 171.546 878.817 171.082C878.505 170.618 878.056 170.386 877.47 170.386C876.742 170.386 876.22 170.687 875.902 171.287V174.803C876.225 175.418 876.752 175.726 877.484 175.726C878.051 175.726 878.493 175.499 878.81 175.044C879.132 174.585 879.293 173.892 879.293 172.964ZM887.313 177C887.235 176.849 887.167 176.602 887.108 176.26C886.542 176.851 885.849 177.146 885.028 177.146C884.232 177.146 883.583 176.919 883.08 176.465C882.577 176.011 882.326 175.45 882.326 174.781C882.326 173.936 882.638 173.289 883.263 172.84C883.893 172.386 884.792 172.159 885.958 172.159H887.05V171.639C887.05 171.229 886.935 170.901 886.706 170.657C886.476 170.408 886.127 170.284 885.658 170.284C885.253 170.284 884.921 170.386 884.662 170.591C884.403 170.792 884.274 171.048 884.274 171.36H882.494C882.494 170.926 882.638 170.521 882.926 170.145C883.214 169.764 883.605 169.466 884.098 169.251C884.596 169.036 885.15 168.929 885.761 168.929C886.688 168.929 887.428 169.163 887.98 169.632C888.532 170.096 888.815 170.75 888.83 171.595V175.169C888.83 175.882 888.93 176.451 889.13 176.875V177H887.313ZM885.358 175.718C885.709 175.718 886.039 175.633 886.347 175.462C886.659 175.291 886.894 175.062 887.05 174.773V173.279H886.09C885.431 173.279 884.936 173.394 884.604 173.624C884.271 173.853 884.105 174.178 884.105 174.598C884.105 174.939 884.218 175.213 884.442 175.418C884.672 175.618 884.977 175.718 885.358 175.718ZM894.843 170.701C894.608 170.662 894.367 170.643 894.118 170.643C893.302 170.643 892.753 170.955 892.47 171.58V177H890.69V169.075H892.389L892.433 169.961C892.863 169.273 893.458 168.929 894.22 168.929C894.474 168.929 894.684 168.963 894.85 169.031L894.843 170.701ZM898.563 167.149V169.075H899.962V170.394H898.563V174.817C898.563 175.12 898.622 175.34 898.739 175.477C898.861 175.608 899.076 175.674 899.384 175.674C899.589 175.674 899.796 175.65 900.006 175.601V176.978C899.601 177.09 899.21 177.146 898.834 177.146C897.467 177.146 896.784 176.392 896.784 174.883V170.394H895.48V169.075H896.784V167.149H898.563ZM903.222 177H901.442V169.075H903.222V177ZM901.332 167.017C901.332 166.744 901.417 166.517 901.588 166.336C901.764 166.155 902.013 166.065 902.335 166.065C902.658 166.065 902.907 166.155 903.083 166.336C903.258 166.517 903.346 166.744 903.346 167.017C903.346 167.286 903.258 167.51 903.083 167.691C902.907 167.867 902.658 167.955 902.335 167.955C902.013 167.955 901.764 167.867 901.588 167.691C901.417 167.51 901.332 167.286 901.332 167.017ZM904.833 172.979C904.833 171.758 905.116 170.779 905.683 170.042C906.249 169.3 907.008 168.929 907.96 168.929C908.8 168.929 909.479 169.222 909.997 169.808V165.75H911.776V177H910.165L910.077 176.18C909.545 176.824 908.834 177.146 907.946 177.146C907.018 177.146 906.266 176.773 905.69 176.026C905.119 175.279 904.833 174.263 904.833 172.979ZM906.613 173.133C906.613 173.938 906.767 174.568 907.074 175.022C907.387 175.472 907.829 175.696 908.4 175.696C909.127 175.696 909.66 175.372 909.997 174.722V171.338C909.669 170.704 909.142 170.386 908.415 170.386C907.838 170.386 907.394 170.616 907.082 171.075C906.769 171.529 906.613 172.215 906.613 173.133ZM918.368 177C918.29 176.849 918.222 176.602 918.163 176.26C917.597 176.851 916.903 177.146 916.083 177.146C915.287 177.146 914.638 176.919 914.135 176.465C913.632 176.011 913.38 175.45 913.38 174.781C913.38 173.936 913.693 173.289 914.318 172.84C914.948 172.386 915.846 172.159 917.013 172.159H918.104V171.639C918.104 171.229 917.99 170.901 917.76 170.657C917.531 170.408 917.182 170.284 916.713 170.284C916.308 170.284 915.976 170.386 915.717 170.591C915.458 170.792 915.329 171.048 915.329 171.36H913.549C913.549 170.926 913.693 170.521 913.981 170.145C914.269 169.764 914.66 169.466 915.153 169.251C915.651 169.036 916.205 168.929 916.815 168.929C917.743 168.929 918.483 169.163 919.035 169.632C919.586 170.096 919.87 170.75 919.884 171.595V175.169C919.884 175.882 919.984 176.451 920.185 176.875V177H918.368ZM916.413 175.718C916.764 175.718 917.094 175.633 917.401 175.462C917.714 175.291 917.948 175.062 918.104 174.773V173.279H917.145C916.486 173.279 915.99 173.394 915.658 173.624C915.326 173.853 915.16 174.178 915.16 174.598C915.16 174.939 915.272 175.213 915.497 175.418C915.727 175.618 916.032 175.718 916.413 175.718ZM932.423 173.118C932.423 174.344 932.145 175.323 931.588 176.055C931.032 176.783 930.285 177.146 929.347 177.146C928.478 177.146 927.782 176.861 927.26 176.29V180.047H925.48V169.075H927.121L927.194 169.881C927.716 169.246 928.427 168.929 929.325 168.929C930.292 168.929 931.049 169.29 931.596 170.013C932.147 170.73 932.423 171.729 932.423 173.008V173.118ZM930.651 172.964C930.651 172.173 930.492 171.546 930.175 171.082C929.862 170.618 929.413 170.386 928.827 170.386C928.1 170.386 927.577 170.687 927.26 171.287V174.803C927.582 175.418 928.109 175.726 928.842 175.726C929.408 175.726 929.85 175.499 930.167 175.044C930.49 174.585 930.651 173.892 930.651 172.964ZM938.671 177C938.593 176.849 938.524 176.602 938.466 176.26C937.899 176.851 937.206 177.146 936.386 177.146C935.59 177.146 934.94 176.919 934.438 176.465C933.935 176.011 933.683 175.45 933.683 174.781C933.683 173.936 933.996 173.289 934.621 172.84C935.25 172.386 936.149 172.159 937.316 172.159H938.407V171.639C938.407 171.229 938.292 170.901 938.063 170.657C937.833 170.408 937.484 170.284 937.016 170.284C936.61 170.284 936.278 170.386 936.02 170.591C935.761 170.792 935.631 171.048 935.631 171.36H933.852C933.852 170.926 933.996 170.521 934.284 170.145C934.572 169.764 934.962 169.466 935.456 169.251C935.954 169.036 936.508 168.929 937.118 168.929C938.046 168.929 938.786 169.163 939.337 169.632C939.889 170.096 940.172 170.75 940.187 171.595V175.169C940.187 175.882 940.287 176.451 940.487 176.875V177H938.671ZM936.715 175.718C937.067 175.718 937.396 175.633 937.704 175.462C938.017 175.291 938.251 175.062 938.407 174.773V173.279H937.448C936.789 173.279 936.293 173.394 935.961 173.624C935.629 173.853 935.463 174.178 935.463 174.598C935.463 174.939 935.575 175.213 935.8 175.418C936.029 175.618 936.334 175.718 936.715 175.718ZM946.2 170.701C945.966 170.662 945.724 170.643 945.475 170.643C944.66 170.643 944.11 170.955 943.827 171.58V177H942.047V169.075H943.747L943.791 169.961C944.22 169.273 944.816 168.929 945.578 168.929C945.832 168.929 946.042 168.963 946.208 169.031L946.2 170.701ZM951.84 177C951.762 176.849 951.693 176.602 951.635 176.26C951.068 176.851 950.375 177.146 949.555 177.146C948.759 177.146 948.109 176.919 947.606 176.465C947.104 176.011 946.852 175.45 946.852 174.781C946.852 173.936 947.165 173.289 947.79 172.84C948.419 172.386 949.318 172.159 950.485 172.159H951.576V171.639C951.576 171.229 951.461 170.901 951.232 170.657C951.002 170.408 950.653 170.284 950.185 170.284C949.779 170.284 949.447 170.386 949.188 170.591C948.93 170.792 948.8 171.048 948.8 171.36H947.021C947.021 170.926 947.165 170.521 947.453 170.145C947.741 169.764 948.131 169.466 948.625 169.251C949.123 169.036 949.677 168.929 950.287 168.929C951.215 168.929 951.955 169.163 952.506 169.632C953.058 170.096 953.341 170.75 953.356 171.595V175.169C953.356 175.882 953.456 176.451 953.656 176.875V177H951.84ZM949.884 175.718C950.236 175.718 950.565 175.633 950.873 175.462C951.186 175.291 951.42 175.062 951.576 174.773V173.279H950.617C949.958 173.279 949.462 173.394 949.13 173.624C948.798 173.853 948.632 174.178 948.632 174.598C948.632 174.939 948.744 175.213 948.969 175.418C949.198 175.618 949.503 175.718 949.884 175.718ZM960.98 173.038V177H959.127V166.336H963.207C964.398 166.336 965.343 166.646 966.042 167.266C966.745 167.886 967.096 168.707 967.096 169.727C967.096 170.772 966.752 171.585 966.063 172.166C965.38 172.747 964.42 173.038 963.185 173.038H960.98ZM960.98 171.551H963.207C963.866 171.551 964.369 171.397 964.716 171.089C965.062 170.777 965.236 170.328 965.236 169.742C965.236 169.166 965.06 168.707 964.708 168.365C964.357 168.018 963.874 167.84 963.258 167.83H960.98V171.551ZM973.197 177C973.119 176.849 973.051 176.602 972.992 176.26C972.426 176.851 971.732 177.146 970.912 177.146C970.116 177.146 969.467 176.919 968.964 176.465C968.461 176.011 968.209 175.45 968.209 174.781C968.209 173.936 968.522 173.289 969.147 172.84C969.777 172.386 970.675 172.159 971.842 172.159H972.934V171.639C972.934 171.229 972.819 170.901 972.589 170.657C972.36 170.408 972.011 170.284 971.542 170.284C971.137 170.284 970.805 170.386 970.546 170.591C970.287 170.792 970.158 171.048 970.158 171.36H968.378C968.378 170.926 968.522 170.521 968.81 170.145C969.098 169.764 969.489 169.466 969.982 169.251C970.48 169.036 971.034 168.929 971.645 168.929C972.572 168.929 973.312 169.163 973.864 169.632C974.416 170.096 974.699 170.75 974.713 171.595V175.169C974.713 175.882 974.813 176.451 975.014 176.875V177H973.197ZM971.242 175.718C971.593 175.718 971.923 175.633 972.23 175.462C972.543 175.291 972.777 175.062 972.934 174.773V173.279H971.974C971.315 173.279 970.819 173.394 970.487 173.624C970.155 173.853 969.989 174.178 969.989 174.598C969.989 174.939 970.102 175.213 970.326 175.418C970.556 175.618 970.861 175.718 971.242 175.718ZM980.727 170.701C980.492 170.662 980.25 170.643 980.001 170.643C979.186 170.643 978.637 170.955 978.354 171.58V177H976.574V169.075H978.273L978.317 169.961C978.747 169.273 979.342 168.929 980.104 168.929C980.358 168.929 980.568 168.963 980.734 169.031L980.727 170.701ZM983.744 177H981.964V169.075H983.744V177ZM981.854 167.017C981.854 166.744 981.94 166.517 982.111 166.336C982.287 166.155 982.536 166.065 982.858 166.065C983.18 166.065 983.429 166.155 983.605 166.336C983.781 166.517 983.869 166.744 983.869 167.017C983.869 167.286 983.781 167.51 983.605 167.691C983.429 167.867 983.18 167.955 982.858 167.955C982.536 167.955 982.287 167.867 982.111 167.691C981.94 167.51 981.854 167.286 981.854 167.017ZM990.131 174.847C990.131 174.529 989.999 174.288 989.735 174.122C989.477 173.956 989.044 173.809 988.439 173.682C987.833 173.555 987.328 173.394 986.923 173.199C986.034 172.769 985.59 172.146 985.59 171.331C985.59 170.647 985.878 170.076 986.454 169.617C987.03 169.158 987.763 168.929 988.651 168.929C989.599 168.929 990.363 169.163 990.944 169.632C991.53 170.101 991.823 170.708 991.823 171.456H990.043C990.043 171.114 989.916 170.831 989.662 170.606C989.408 170.376 989.071 170.262 988.651 170.262C988.261 170.262 987.941 170.352 987.692 170.533C987.448 170.713 987.326 170.955 987.326 171.258C987.326 171.531 987.44 171.744 987.67 171.895C987.899 172.046 988.363 172.2 989.062 172.356C989.76 172.508 990.307 172.691 990.702 172.906C991.103 173.116 991.398 173.37 991.588 173.667C991.784 173.965 991.881 174.327 991.881 174.751C991.881 175.464 991.586 176.043 990.995 176.487C990.404 176.927 989.63 177.146 988.673 177.146C988.024 177.146 987.445 177.029 986.938 176.795C986.43 176.561 986.034 176.238 985.751 175.828C985.468 175.418 985.326 174.976 985.326 174.502H987.055C987.079 174.922 987.238 175.247 987.531 175.477C987.824 175.701 988.212 175.813 988.695 175.813C989.164 175.813 989.521 175.726 989.765 175.55C990.009 175.369 990.131 175.135 990.131 174.847Z" fill="#0C0C0C"/>
<ellipse cx="596.084" cy="414" rx="9.37239" ry="10" fill="#FF5A00"/>
<ellipse cx="909.121" cy="197" rx="9.37239" ry="10" fill="#FF5A00"/>
<path d="M72.6912 362.848L64.3774 360.052L64.3985 358.016L75.0222 361.964L75.0036 363.759L64.3006 367.471L64.3216 365.443L72.6912 362.848ZM75.1183 352.692C74.9661 352.769 74.7188 352.835 74.3765 352.89C74.9614 353.462 75.2496 354.159 75.2411 354.979C75.2328 355.775 74.9991 356.422 74.5398 356.92C74.0805 357.418 73.5164 357.664 72.8475 357.657C72.0028 357.648 71.3591 357.329 70.9164 356.699C70.4688 356.065 70.2511 355.164 70.2632 353.997L70.2745 352.906L69.7545 352.9C69.3444 352.896 69.0161 353.008 68.7696 353.235C68.5182 353.461 68.39 353.809 68.3852 354.278C68.381 354.683 68.4801 355.016 68.6825 355.277C68.88 355.538 69.135 355.67 69.4475 355.673L69.429 357.453C68.9945 357.449 68.5907 357.3 68.2177 357.008C67.8399 356.716 67.5461 356.323 67.3364 355.827C67.1267 355.327 67.025 354.772 67.0313 354.161C67.041 353.234 67.283 352.496 67.7574 351.95C68.227 351.403 68.8842 351.126 69.729 351.12L73.303 351.157C74.0159 351.165 74.5857 351.071 75.0126 350.875L75.1371 350.876L75.1183 352.692ZM73.8164 354.635C73.82 354.283 73.738 353.953 73.5703 353.643C73.4026 353.329 73.1756 353.092 72.8891 352.933L71.3951 352.917L71.3851 353.877C71.3783 354.536 71.4879 355.033 71.7139 355.367C71.94 355.702 72.2629 355.871 72.6828 355.875C73.0246 355.879 73.2992 355.769 73.5066 355.547C73.7092 355.32 73.8124 355.015 73.8164 354.635ZM75.1729 347.419L75.1545 349.199L63.9051 349.082L63.9235 347.303L75.1729 347.419ZM71.1542 345.766C70.3778 345.758 69.6812 345.597 69.0643 345.283C68.4426 344.969 67.9685 344.532 67.6423 343.972C67.3112 343.412 67.1493 342.77 67.1568 342.048C67.1679 340.979 67.5211 340.115 68.2164 339.459C68.9118 338.797 69.8286 338.445 70.9668 338.403L71.3843 338.4C72.1655 338.408 72.8621 338.567 73.4742 338.876C74.0863 339.18 74.5579 339.615 74.889 340.18C75.2201 340.74 75.3819 341.386 75.3743 342.118C75.3627 343.236 74.9824 344.128 74.2333 344.795C73.4793 345.456 72.4822 345.78 71.2421 345.767L71.1542 345.766ZM71.3264 343.988C72.1418 343.997 72.7832 343.835 73.2505 343.503C73.7129 343.17 73.9473 342.704 73.9535 342.104C73.9597 341.503 73.7302 341.034 73.2649 340.697C72.7997 340.356 72.1154 340.18 71.2121 340.171C70.4114 340.162 69.7749 340.329 69.3026 340.671C68.8303 341.008 68.5911 341.472 68.585 342.063C68.579 342.644 68.8061 343.107 69.2664 343.454C69.7218 343.801 70.4085 343.979 71.3264 343.988ZM69.026 332.721C68.9845 332.955 68.9625 333.196 68.9599 333.445C68.9515 334.261 69.2583 334.813 69.8803 335.103L75.2999 335.159L75.2815 336.939L67.3571 336.857L67.3747 335.158L68.2613 335.123C67.5774 334.686 67.2393 334.087 67.2472 333.325C67.2498 333.071 67.2862 332.862 67.3562 332.696L69.026 332.721Z" fill="#FF5A00"/>
<path d="M581.538 382H579.692V377.261H574.924V382H573.071V371.336H574.924V375.774H579.692V371.336H581.538V382ZM583.23 377.964C583.23 377.188 583.384 376.49 583.691 375.87C583.999 375.245 584.431 374.766 584.988 374.434C585.544 374.097 586.184 373.929 586.907 373.929C587.976 373.929 588.843 374.273 589.507 374.961C590.176 375.65 590.537 376.563 590.591 377.701L590.598 378.118C590.598 378.899 590.447 379.598 590.144 380.213C589.846 380.828 589.417 381.304 588.855 381.641C588.298 381.978 587.654 382.146 586.921 382.146C585.803 382.146 584.907 381.775 584.233 381.033C583.564 380.286 583.23 379.292 583.23 378.052V377.964ZM585.01 378.118C585.01 378.934 585.178 379.573 585.515 380.037C585.852 380.496 586.321 380.726 586.921 380.726C587.522 380.726 587.988 380.491 588.32 380.022C588.657 379.554 588.826 378.868 588.826 377.964C588.826 377.164 588.652 376.529 588.306 376.06C587.964 375.591 587.498 375.357 586.907 375.357C586.326 375.357 585.864 375.589 585.522 376.053C585.181 376.512 585.01 377.2 585.01 378.118ZM593.96 374.075V382.703C593.96 383.514 593.757 384.131 593.352 384.556C592.952 384.986 592.363 385.201 591.587 385.201C591.26 385.201 590.945 385.159 590.642 385.076V383.67C590.828 383.714 591.038 383.736 591.272 383.736C591.863 383.736 592.166 383.414 592.18 382.769V374.075H593.96ZM592.026 372.017C592.026 371.744 592.112 371.517 592.283 371.336C592.458 371.155 592.708 371.065 593.03 371.065C593.352 371.065 593.601 371.155 593.777 371.336C593.953 371.517 594.041 371.744 594.041 372.017C594.041 372.286 593.953 372.51 593.777 372.691C593.601 372.867 593.352 372.955 593.03 372.955C592.708 372.955 592.458 372.867 592.283 372.691C592.112 372.51 592.026 372.286 592.026 372.017ZM599.358 382.146C598.23 382.146 597.314 381.792 596.611 381.084C595.913 380.372 595.564 379.424 595.564 378.243V378.023C595.564 377.232 595.715 376.526 596.018 375.906C596.326 375.281 596.755 374.795 597.307 374.449C597.859 374.102 598.474 373.929 599.153 373.929C600.232 373.929 601.064 374.273 601.65 374.961C602.241 375.65 602.537 376.624 602.537 377.884V378.602H597.358C597.412 379.256 597.629 379.773 598.01 380.154C598.396 380.535 598.879 380.726 599.46 380.726C600.276 380.726 600.94 380.396 601.453 379.737L602.412 380.652C602.095 381.126 601.67 381.495 601.138 381.758C600.61 382.017 600.017 382.146 599.358 382.146ZM599.146 375.357C598.657 375.357 598.262 375.528 597.959 375.87C597.661 376.211 597.471 376.688 597.388 377.298H600.779V377.166C600.74 376.57 600.581 376.121 600.303 375.818C600.024 375.511 599.639 375.357 599.146 375.357Z" fill="#0C0C0C"/>
</svg>
